<?xml version="1.0" encoding="UTF-8"?>
<svg id="Layer_2" data-name="Layer 2" xmlns="http://www.w3.org/2000/svg" viewBox="0 0 149.74 40">
  <defs>
    <style>
      .cls-1 {
        fill: #fff;
      }
    </style>
  </defs>
  <g id="Layer_1-2" data-name="Layer 1">
    <path class="cls-1" d="M37.63,32.36h1.05l1.4,3.99h.02l1.37-3.99h1.05v7.56h-1.07v-4.59h-.02l-1.07,3.24h-.55l-1.07-3.24h-.02v4.59h-1.07v-7.56h0Zm7.49,0h3.22v1.02h-2.15v2.22h1.87v1.02h-1.87v2.22h2.15v1.07h-3.22v-7.56Zm1.85-1.85h1.15l-1.4,1.5h-.7l.95-1.5Zm4.64,5.44l-1.4-3.59h1.15l.82,2.25,.82-2.25h1.15l-1.45,3.59,1.57,3.97h-1.15l-.95-2.55-.92,2.55h-1.15l1.5-3.97Zm4.74-3.59h1.07v7.56h-1.07v-7.56Zm7.16,5.86c0,.22-.05,.45-.12,.67-.07,.22-.22,.4-.37,.55s-.35,.3-.55,.4c-.22,.1-.42,.15-.67,.15-.2,0-.42-.02-.62-.07s-.4-.15-.57-.3c-.17-.15-.32-.32-.42-.55-.12-.22-.15-.52-.15-.87v-4.17c0-.25,.05-.47,.12-.7s.2-.4,.35-.55,.35-.27,.55-.37c.22-.07,.45-.12,.72-.12,.25,0,.47,.05,.7,.12s.4,.22,.55,.37,.27,.35,.37,.57c.07,.22,.12,.45,.12,.72v.42h-1.07v-.35c0-.22-.05-.4-.17-.55s-.3-.22-.5-.22c-.27,0-.45,.07-.52,.25-.07,.17-.12,.37-.12,.62v3.87c0,.22,.05,.4,.15,.55s.27,.22,.52,.22c.07,0,.15-.02,.22-.05s.15-.07,.22-.12,.12-.12,.15-.22c.05-.1,.05-.22,.05-.37v-.37h1.07v.47Zm3.64-5.86h.9l1.7,7.56h-1.07l-.32-1.62h-1.47l-.32,1.62h-1.07l1.67-7.56Zm.47,2.17h0l-.55,2.74h1.07l-.52-2.74Zm4.19-2.17h1.05l1.65,4.54h.02v-4.54h1.07v7.56h-1.02l-1.65-4.54h-.02v4.54h-1.07l-.02-7.56h0Zm9.86,0h3.22v1.02h-2.15v2.22h1.87v1.02h-1.87v2.22h2.15v1.07h-3.22v-7.56Zm6.71,0h.9l1.7,7.56h-1.07l-.32-1.62h-1.47l-.32,1.62h-1.1l1.7-7.56Zm.45,2.17h0l-.55,2.74h1.07l-.52-2.74Zm4.37-1.15h-1.25v-1.02h3.59v1.02h-1.25v6.54h-1.07l-.02-6.54h0Zm4.39-1.02h3.22v1.02h-2.15v2.22h1.87v1.02h-1.87v2.22h2.15v1.07h-3.22v-7.56Zm5.49,0h1.75c1.27,0,1.9,.75,1.9,2.22,0,.45-.07,.82-.2,1.12-.15,.32-.4,.57-.72,.75l1.17,3.47h-1.15l-1-3.22h-.67v3.22h-1.07v-7.56h0Zm1.1,3.37h.62c.17,0,.35-.02,.45-.07,.12-.05,.2-.12,.25-.22s.1-.22,.12-.37,.02-.32,.02-.5-.02-.35-.02-.5c-.02-.15-.07-.27-.12-.37-.07-.1-.15-.17-.3-.22-.12-.05-.27-.07-.47-.07h-.55v2.35h0Zm5.81,1l-1.5-4.37h1.15l.87,2.99h.02l.87-2.99h1.15l-1.5,4.37v3.19h-1.07v-3.19h0ZM5.84,28.25H0V.27H6.21c1.3,0,2.45,.2,3.39,.62,.92,.4,1.72,.97,2.32,1.65,.6,.7,1.05,1.5,1.3,2.4,.25,.87,.4,1.77,.4,2.72v.97c0,.75-.05,1.45-.17,1.97-.12,.55-.32,1.07-.57,1.5s-.57,.82-.95,1.12c-.12,.12-.25,.22-.4,.32,.6,.45,1.07,1,1.4,1.65,.47,.92,.7,2.15,.7,3.64v1.5c0,2.5-.62,4.47-1.87,5.81-1.25,1.4-3.24,2.1-5.91,2.1Zm-4.62-1.22H5.84c2.32,0,3.99-.55,5.02-1.67s1.55-2.82,1.55-5.02v-1.5c0-1.3-.17-2.35-.57-3.09-.37-.72-.92-1.25-1.7-1.62l-1.05-.5,1-.6c.4-.22,.72-.47,1.02-.75,.27-.25,.52-.52,.7-.85,.17-.32,.35-.7,.42-1.12,.1-.45,.15-1.02,.15-1.7v-.97c0-.82-.12-1.6-.32-2.37-.22-.72-.57-1.37-1.07-1.92s-1.12-1-1.9-1.35c-.8-.35-1.75-.52-2.89-.52H1.2V27.02h.02Zm4.87-2.62H3.82V14.62h2.3c.8,0,1.42,.1,1.92,.32,.52,.22,.97,.55,1.27,1,.3,.42,.5,.92,.57,1.52,.07,.52,.12,1.15,.12,1.85,0,.65-.02,1.3-.07,1.87-.05,.62-.22,1.2-.5,1.67-.3,.5-.7,.9-1.25,1.17-.52,.25-1.2,.37-2.1,.37Zm-1.05-1.22h1.05c.67,0,1.2-.07,1.55-.27,.32-.17,.57-.4,.75-.7,.17-.32,.3-.72,.35-1.2,.05-.52,.07-1.12,.07-1.75s-.02-1.2-.1-1.67c-.05-.4-.17-.75-.35-1-.17-.25-.42-.42-.72-.55-.35-.15-.85-.22-1.47-.22h-1.07v7.39h-.05v-.02Zm1.12-10.73H3.82V3.87h2.2c1.47,0,2.52,.37,3.12,1.12,.57,.7,.87,1.75,.87,3.09s-.25,2.4-.75,3.14c-.57,.82-1.6,1.22-3.09,1.22Zm-1.12-1.22h1.12c1.07,0,1.75-.22,2.07-.7,.35-.52,.55-1.37,.55-2.45s-.2-1.85-.6-2.32c-.35-.45-1.1-.67-2.17-.67h-.97v6.14h0ZM30.77,28.25h-5.09l-1.12-5.76h-4.22l-1.12,5.76h-5.09L20.39,.27h4.17l6.21,27.97Zm-4.07-1.22h2.57L23.56,1.47h-2.22l-5.71,25.55h2.57l1.12-5.76h6.24l1.15,5.76Zm-1.62-8.13h-5.32l2.12-10.93h1.07l2.12,10.93Zm-3.82-1.22h2.35l-1.17-6.06-1.17,6.06Zm26.1,10.58h-5.34l-3.57-11.43h-1.22v11.43h-5.07V.27h6.76c2.42,0,4.29,.72,5.54,2.17,1.22,1.42,1.85,3.52,1.85,6.29,0,1.65-.25,3.04-.8,4.24-.47,1.1-1.3,2.02-2.4,2.72l4.24,12.55Zm-4.47-1.22h2.74l-4.02-11.9,.45-.25c1.12-.62,1.87-1.4,2.32-2.4,.45-1.02,.7-2.3,.7-3.77,0-4.89-2.02-7.24-6.16-7.24h-5.56V27.02h2.62V15.6h3.37l3.54,11.43Zm-4.12-13.6h-2.79V3.84h2.6c.8,0,1.42,.1,1.92,.32,.55,.22,.97,.57,1.27,1.02,.3,.45,.47,.97,.55,1.57,.07,.55,.12,1.17,.12,1.87s-.05,1.32-.12,1.87c-.07,.6-.25,1.1-.52,1.52-.27,.45-.67,.8-1.17,1.05-.45,.25-1.07,.35-1.85,.35Zm-1.57-1.2h1.57c.6,0,1.02-.07,1.37-.22,.3-.15,.5-.32,.65-.57,.17-.27,.3-.65,.35-1.07,.07-.5,.1-1.05,.1-1.7s-.02-1.22-.1-1.7c-.05-.42-.17-.8-.37-1.07-.17-.25-.4-.45-.72-.57-.35-.15-.85-.22-1.47-.22h-1.37v7.14h0ZM48.88,.22h5.86c1.27,0,2.37,.2,3.29,.6s1.65,.92,2.22,1.57,1,1.4,1.22,2.27c.25,.85,.37,1.75,.37,2.65v1.02c0,.75-.05,1.4-.17,1.92-.12,.52-.3,1-.52,1.37s-.52,.75-.87,1.05-.72,.6-1.17,.85c.95,.45,1.65,1.1,2.07,1.97,.45,.87,.67,2.05,.67,3.52v1.57c0,2.47-.6,4.34-1.8,5.66-1.2,1.3-3.09,1.97-5.71,1.97h-5.46V.22h0Zm4.02,11.48h1.8c1.32,0,2.25-.32,2.69-1s.7-1.65,.7-2.92-.25-2.2-.75-2.82c-.52-.62-1.45-.95-2.77-.95h-1.65l-.02,7.69h0Zm0,12.5h1.75c.82,0,1.45-.12,1.9-.35,.45-.22,.8-.55,1.05-1,.22-.42,.37-.92,.42-1.5s.07-1.2,.07-1.9-.05-1.32-.12-1.85-.25-.97-.5-1.32-.6-.62-1.05-.8c-.45-.17-1.02-.27-1.77-.27h-1.77l.02,8.98h0Zm25.7-2.27c0,.92-.17,1.77-.52,2.55-.35,.8-.8,1.47-1.4,2.07-.6,.6-1.27,1.07-2.07,1.4-.8,.35-1.62,.52-2.52,.52s-1.75-.17-2.52-.52c-.8-.35-1.47-.8-2.07-1.4s-1.07-1.27-1.4-2.07c-.35-.8-.52-1.65-.52-2.55V.25h4.02V21.56c0,1,.22,1.75,.7,2.2,.47,.47,1.07,.7,1.77,.7s1.3-.22,1.77-.7c.47-.47,.7-1.2,.7-2.2V.25h4.02V21.93h.05ZM82.4,.22h6.44c4.72,0,7.06,2.74,7.06,8.21,0,1.62-.25,3.02-.75,4.19-.52,1.17-1.4,2.12-2.69,2.82l4.32,12.78h-4.24l-3.74-11.95h-2.4v11.95h-4.02l.02-28h0Zm3.99,12.5h2.27c.7,0,1.27-.1,1.7-.3s.75-.47,.97-.85,.37-.82,.45-1.37c.07-.52,.12-1.17,.12-1.87s-.05-1.32-.12-1.87-.25-1-.5-1.37-.6-.65-1.05-.85c-.45-.17-1.02-.27-1.77-.27h-2.1V12.73h.02ZM99.14,.22h6.44c4.72,0,7.06,2.74,7.06,8.21,0,1.62-.25,3.02-.75,4.19-.52,1.17-1.4,2.12-2.69,2.82l4.32,12.78h-4.24l-3.74-11.95h-2.4v11.95h-4.02l.02-28h0Zm4.02,12.5h2.27c.7,0,1.27-.1,1.7-.3,.42-.2,.75-.47,.97-.85s.37-.82,.45-1.37c.07-.52,.12-1.17,.12-1.87s-.05-1.32-.12-1.87c-.07-.52-.25-1-.5-1.37s-.6-.65-1.05-.85c-.45-.17-1.02-.27-1.77-.27h-2.07V12.73h0ZM116.01,.22h4.02V28.22h-4.02V.22Zm10.53,3.79h-4.64V.25h13.28v3.77h-4.64V28.25h-4.02V4.02h.02Zm9.73,2.82c0-1.12,.2-2.12,.6-2.99s.9-1.57,1.55-2.15c.65-.55,1.37-1,2.17-1.27,.8-.3,1.6-.42,2.42-.42s1.62,.15,2.42,.42c.8,.3,1.52,.72,2.17,1.27,.65,.55,1.17,1.27,1.55,2.15,.4,.87,.6,1.87,.6,2.99v14.77c0,1.15-.2,2.15-.6,3.02-.4,.85-.92,1.57-1.55,2.12-.65,.55-1.37,1-2.17,1.27-.8,.3-1.6,.42-2.42,.42s-1.62-.15-2.42-.42c-.8-.3-1.52-.72-2.17-1.27s-1.17-1.27-1.55-2.12c-.4-.85-.6-1.85-.6-3.02V6.84h0Zm4.02,14.77c0,.97,.27,1.67,.8,2.15,.52,.45,1.17,.7,1.9,.7s1.37-.22,1.9-.7c.52-.45,.8-1.17,.8-2.15V6.84c0-.97-.27-1.67-.8-2.15-.52-.45-1.17-.7-1.9-.7s-1.37,.22-1.9,.7c-.52,.45-.8,1.17-.8,2.15v14.77Z"/>
  </g>
</svg>