<?xml version="1.0" encoding="UTF-8"?>
<svg id="Layer_2" data-name="Layer 2" xmlns="http://www.w3.org/2000/svg" viewBox="0 0 96.63 40">
  <defs>
    <style>
      .cls-1 {
        fill: #fff;
        fill-rule: evenodd;
      }
    </style>
  </defs>
  <g id="Layer_1-2" data-name="Layer 1">
    <g>
      <path class="cls-1" d="M88.79,27l.5-1.19c.71-1.7,1.08-3.53,1.08-5.38,0-2.03-.42-4.1-1.25-6.15l-.5-1.24-.52,1.23c-.72,1.7-1.09,3.55-1.09,5.48,0,2.09,.44,4.15,1.27,6.07l.51,1.18Zm-45.87,0l.5-1.19c.72-1.7,1.08-3.53,1.08-5.38,0-2.03-.42-4.1-1.25-6.15l-.5-1.24-.52,1.23c-.73,1.7-1.09,3.55-1.09,5.48,0,2.09,.43,4.15,1.27,6.07l.52,1.18Z"/>
      <path class="cls-1" d="M1.6,19.82c0-5.97,2.05-11.75,5.78-16.28l.51-.62,.52,.62c3.01,3.64,4.98,8.37,5.64,13.36h-4.84c-.21-.89-.49-1.77-.83-2.62l-.5-1.24-.52,1.23c-.72,1.7-1.09,3.55-1.09,5.48,0,2.07,.44,4.17,1.27,6.07l.51,1.18,.5-1.19c.39-.92,.67-1.88,.85-2.86h4.78c-.29,3.16-1.15,6.13-2.53,8.7l-.02,.04c-.71,1.51-1.68,3.04-3.06,4.84l-.53,.69-.53-.69c-2.19-2.87-3.86-6.09-4.82-9.32-.74-2.39-1.11-4.88-1.11-7.39h0Zm6.28,1.27h6.38v-2.36H7.88v2.36ZM21.4,2.67v15.34h2.77s0-15.34,0-15.34h4.69l.02,34.77h-4.71v-15.57s-2.7,0-2.7,0l.02,15.58h-5.23V12.02l-.02-9.35h5.15Zm9.2,0h4.47V37.45s-4.47,0-4.47,0V2.67h0s0,0,0,0Zm8.35,6.43c.74-1.6,1.68-3.04,2.59-4.43,.26-.4,.52-.79,.77-1.18l.5-.78,.58,.71c3.65,4.49,5.75,10.65,5.76,16.91,0,3.26-.55,6.38-1.64,9.27l-.13,.33,3.91,7.52h-3.67s-.18-.4-.18-.4c-.38-.81-.79-1.6-1.23-2.38l-.62-1.13-.74,1.05c-.34,.48-.68,.96-1.04,1.43l-.42,.56-.53,.72-.54-.72c-3.63-4.84-5.63-10.83-5.63-16.84,0-3.75,.76-7.33,2.25-10.66h0s0,0,0,0Zm11.79-6.42h4.56V20.88c0,5.07,1.38,6.76,1.38,6.76,0,0,1.37-1.68,1.37-6.76V2.68h4.56V23.64c0,2.16-1.11,7.67-5.93,13.46-4.82-5.79-5.93-11.3-5.93-13.46V2.68Zm18.15,0V37.45s-4.59,.01-4.59,.01l-.02-34.79h4.61Zm15.6,0v3.29l-.07,.13h-4.65l.02,31.37h-4.83V6.08s-4.47,0-4.47,0V2.67s14,0,14,0Zm3.63,.87l.51-.62,.52,.62c3.74,4.52,5.88,10.72,5.89,17.02,0,4.05-.91,7.89-2.64,11.09l-.02,.04c-.71,1.51-1.68,3.04-3.06,4.84l-.53,.69-.53-.69c-2.19-2.87-3.86-6.09-4.82-9.32-.74-2.39-1.11-4.88-1.11-7.39,0-5.97,2.05-11.75,5.78-16.28h0Zm-6.75,10.43V7.68s2.2,0,2.2,0c-.99,2-1.72,4.11-2.2,6.29ZM8.04,39.84l1.8-2.34c1.45-1.88,2.47-3.51,3.23-5.11,.64-1.2,1.18-2.47,1.6-3.81v10.46h8.42s5.79,0,5.79,0h0s7.79,0,7.79,0v-9.81c1.01,2.99,2.48,5.8,4.37,8.33l1.83,2.44,1.81-2.46c.14-.19,.27-.37,.41-.56l.31-.42c.2,.39,.4,.78,.58,1.17l.61,1.31h7.32s-4.8-9.22-4.8-9.22c.25-.7,.47-1.41,.67-2.13,1.06,3.77,2.79,7.07,5.17,9.85l1.71,2,1.72-1.98c1.85-2.13,3.28-4.64,4.31-7.59v9.08s7.8-.01,7.8-.01V7.68s2.87,0,2.87,0v31.38s8.02,0,8.02,0v-13.41c.14,.68,.32,1.36,.53,2.03,1.01,3.4,2.77,6.8,5.08,9.82l1.79,2.34,1.8-2.34c1.45-1.88,2.47-3.51,3.23-5.11,1.84-3.43,2.82-7.52,2.82-11.83,0-6.66-2.29-13.24-6.26-18.04l-1.75-2.11-1.74,2.12c-.27,.33-.54,.67-.8,1.02V1.08H48.92l-.03,8.94c-1.03-2.8-2.47-5.38-4.27-7.59l-1.98-2.42-1.68,2.64c-.25,.39-.5,.78-.76,1.17-.94,1.44-1.91,2.92-2.7,4.64-.3,.68-.58,1.36-.83,2.06V1.08H14.65l.02,10.95v.17c-1.05-3.59-2.77-6.92-5.04-9.67L7.89,.42l-1.74,2.12C2.18,7.35,0,13.49,0,19.83c0,2.69,.4,5.34,1.17,7.85,1.01,3.41,2.77,6.8,5.08,9.82l1.79,2.34Z"/>
    </g>
  </g>
</svg>