<?xml version="1.0" encoding="UTF-8"?>
<svg id="Layer_2" data-name="Layer 2" xmlns="http://www.w3.org/2000/svg" viewBox="0 0 57.69 42.21">
  <defs>
    <style>
      .cls-1 {
        fill: #fff;
      }

      .cls-2 {
        fill: #de5d56;
      }
    </style>
  </defs>
  <g id="Layer_1-2" data-name="Layer 1">
    <g>
      <g>
        <path class="cls-1" d="M9.81,24.24c0-2.94,1.9-4.88,4.46-4.88,2.96,0,4.59,2.39,4.29,5.44h-6.49c.07,1.87,1.09,2.55,2.27,2.55,1.29,0,1.9-.89,2.24-1.66l2.03,.76c-.59,1.44-1.87,2.68-4.31,2.68-2.72,0-4.49-1.83-4.49-4.88Zm6.51-1.11c-.07-1.35-.89-2.09-2.05-2.09s-1.98,.74-2.15,2.09h4.2Z"/>
        <path class="cls-1" d="M21.5,28.85V15.9h2.24v12.95h-2.24Z"/>
        <path class="cls-1" d="M26.59,24.24c0-2.94,1.9-4.88,4.46-4.88,2.96,0,4.59,2.39,4.29,5.44h-6.49c.07,1.87,1.09,2.55,2.27,2.55,1.29,0,1.91-.89,2.24-1.66l2.03,.76c-.59,1.44-1.87,2.68-4.31,2.68-2.72,0-4.49-1.83-4.49-4.88Zm6.51-1.11c-.07-1.35-.89-2.09-2.05-2.09s-1.98,.74-2.14,2.09h4.2Z"/>
        <path class="cls-1" d="M37.62,24.22c0-2.92,2.05-4.86,4.75-4.86,2.16,0,3.62,1.22,4.16,2.74l-2.09,.76c-.33-1-1.05-1.66-2.15-1.66-1.31,0-2.39,1-2.39,3.03s1.09,3.07,2.4,3.07c1.24,0,1.91-.74,2.27-1.85l2.13,.74c-.67,1.76-2.22,2.94-4.36,2.94-2.77,0-4.73-1.92-4.73-4.9Z"/>
      </g>
      <g>
        <path class="cls-1" d="M9.87,37.63v-4.64h.77v.82c.08-.24,.54-.95,1.54-.95,1.15,0,1.62,.73,1.62,1.76v3.01h-.8v-2.82c0-.88-.4-1.26-1.05-1.26-1.24,0-1.29,1.35-1.29,2.03v2.05h-.79Z"/>
        <path class="cls-1" d="M14.95,35.31c0-1.44,.96-2.46,2.2-2.46s2.19,1.01,2.19,2.46-.98,2.45-2.19,2.45-2.2-1.01-2.2-2.45Zm3.57,0c0-1.18-.58-1.77-1.36-1.77s-1.37,.59-1.37,1.77,.58,1.75,1.37,1.75,1.36-.56,1.36-1.75Z"/>
        <path class="cls-1" d="M20.57,37.63v-4.64h.77v1c.16-.39,.63-1.07,1.55-1.07,.22,0,.36,.02,.47,.06v.81c-.14-.02-.32-.05-.53-.05-1.04,0-1.47,.68-1.47,1.8v2.09h-.79Z"/>
        <path class="cls-1" d="M26.52,37.63c-.8,0-1.19-.39-1.19-1.15v-2.82h-1.09v-.67h1.09v-1.44h.79v1.44h1.29v.67h-1.29v2.76c0,.37,.17,.53,.53,.53h.92v.68h-1.05Z"/>
        <path class="cls-1" d="M28.97,37.63v-6.57h.79v2.74c.08-.24,.51-.95,1.57-.95s1.58,.73,1.58,1.76v3.01h-.8v-2.82c0-.88-.4-1.26-1.05-1.26-1.24,0-1.29,1.35-1.29,2.03v2.05h-.79Z"/>
        <path class="cls-1" d="M34.44,35.3c0-1.51,.91-2.45,2.08-2.45,1.36,0,2.19,1.13,2.03,2.64h-3.31c.04,1.2,.68,1.59,1.35,1.59,.76,0,1.12-.56,1.26-.92l.73,.26c-.32,.84-1.04,1.33-2.02,1.33-1.28,0-2.12-.86-2.12-2.46Zm3.3-.45c-.01-.9-.57-1.36-1.22-1.36s-1.2,.53-1.27,1.36h2.49Z"/>
        <path class="cls-1" d="M40.01,37.63v-4.64h.77v1c.16-.39,.63-1.07,1.55-1.07,.22,0,.36,.02,.47,.06v.81c-.14-.02-.32-.05-.53-.05-1.04,0-1.47,.68-1.47,1.8v2.09h-.79Z"/>
        <path class="cls-1" d="M43.95,37.63v-4.64h.77v.82c.08-.24,.54-.95,1.54-.95,1.15,0,1.62,.73,1.62,1.76v3.01h-.8v-2.82c0-.88-.4-1.26-1.05-1.26-1.24,0-1.29,1.35-1.29,2.03v2.05h-.79Z"/>
      </g>
    </g>
    <path class="cls-2" d="M57.69,42.21H0V11.54L57.69,0V42.21ZM1,41.21H56.69V1.22L1,12.36v28.85Z"/>
  </g>
</svg>