<?xml version="1.0" encoding="UTF-8"?>
<svg id="Layer_2" data-name="Layer 2" xmlns="http://www.w3.org/2000/svg" viewBox="0 0 145.2 40">
  <defs>
    <style>
      .cls-1 {
        fill: #fff;
      }
    </style>
  </defs>
  <g id="Layer_1-2" data-name="Layer 1">
    <g>
      <path class="cls-1" d="M145.2,12.39c-.06,.34,.09,.77-.22,.99-.89,.18-.77-.86-1.42-1.2-1.02-.43-2.22-.46-3.15,.22-.4,.68-.09,1.51,.25,2.13,1.45,2.59,3.83,4.41,3.52,7.68-1.02,.49-2.04,.99-3.3,.71-.77-.62-2.16-1.14-2.07-2.38,.71-.86,1.82-1.48,2.87-1.88-1.17-2.19-3.64-4.35-2.53-7.31,.86-.96,2.5-1.08,3.79-.68,.89,.28,1.79,.83,2.25,1.73m-2.44,8.64c.18-1.57-1.51-.56-1.97-.06l.31,.34c.49,.28,1.45,.28,1.67-.28m-2.56-16.04c-.06,.4,.09,.89-.22,1.14,.03,.56-.15,1.42-.25,2.13-.68,.71-.68,1.88-1.73,2.07-.59-.31-.18-.99-.28-1.48h.15c.31-1.51,.89-2.93,.99-4.57,.65-.15,.93,.46,1.33,.71m-4.84,12.31c.09,3.76-1.26,6.88-1.17,10.64,.15,2.13,.03,4.35,.43,6.42-.31,.37-.8,.68-1.17,.28-1.23-2.47-.71-5.61-.68-8.54-.15-3.05,1.39-5.52,.96-8.51-1.48,1.6-1.94,3.79-3.3,5.31-.22,.46-.89,.4-1.33,.62-1.57-.93-1.6-3.02-1.63-4.81-.93,.18-.74,1.54-1.82,.77-.25-.28-.22-.86,.03-1.14,1.05-.49,1.39-1.76,2.84-1.2,1.26,.99,.06,3.18,.83,4.47,1.97-1.57,2.22-4.81,4.63-5.74,.93,0,1.11,.8,1.39,1.45m-10.49,3.92c-.12,.77,.77,1.14,.43,1.97-.31,.59-1.05,.56-1.48,.28-1.05-1.7-.99-3.95-2.1-5.49-1.2,1.57-1.94,3.67-2.19,5.83-.31,.34-.8,.68-1.17,.28-1.57-2.5,.56-4.97,.28-7.71,.4-.46,.56-1.05,1.33-.77-.03,.43,.4,.28,.46,.68-.06,.22,.12,.52-.18,.65,.62,.31,1.11-.86,1.97-.43,1.94,.93,1.33,3.45,2.65,4.72m-8.27,2l-.22,1.14c-2.22,.65-1.73-2.01-2.53-3.05-.4-.96-.31-2.07-1.2-2.84-1.57,1.67-1.91,3.89-2.5,5.98-.25,.68-1.17,.46-1.63,.09-.22-2.87,.93-5.58,1.11-8.48,.43-.25,1.17-.22,1.45,.37,.06,.4-.15,.86,.12,1.17,.59-.65,1.57-.77,2.31-.43,1.88,1.42,1.7,4.16,3.08,6.05m-9.87-8.54c.68,.46,1.02,1.11,.59,1.82-2.04,2.38-4.66,3.49-7.06,5.15-.46,.89-.03,2.01,.4,2.62,1.26,1.3,2.71-.09,3.95-.52,.89-.77,1.51-1.54,2.38-2.04,.49,.28,.34,1.33,.09,1.79l-2.04,1.57c-.86,0-1.05,.59-1.85,.77-1.05,.15-2.53,.31-3.42-.28-1.79-.52-.28-4.53-2.38-2.71-.34,.8,.68,1.17-.06,1.82,.09,1.11-.77,1.51-1.54,2.07-.49,.22-1.11,.15-1.51,.62-1.91,.09-4.35,.37-6.05-.52-.25,.28-.74,.18-.99-.03-1.02-.93-.03-2.5-.03-3.76-.09-1.51,.31-2.84,.46-4.26-.37-.18,.06-.43,.03-.65-.28-.49-.06-1.2-.09-1.82,1.11-.09,.83-1.73,1.23-2.59,.99-2.84,2.56-5.98,5.52-7.37,1.14-.28,1.94,.56,2.59,1.08,.56,2.59-1.08,4.63-2.19,6.66-1.14,.77-1.85,2.34-3.21,2.84,.34,.49,1.23,.43,1.76,.86,1.57,.65,2.68,2.04,3.67,3.42,.89,.06,1.54-.59,2.31-.89,.52-1.54,1.39-2.47,2.25-3.86,1.36-1.2,3.05-2.75,5.18-1.79m-4.41,3.61c1.02-.62,2.16-1.33,2.87-2.38-1.26,.37-2.47,1.91-2.87,2.38m-6.79,6.51c.25-.28,.28-.99,.03-1.14l-4.69,2.28c1.67-.12,3.55-.03,4.66-1.14m-2.07-11.91c.93-1.51,2.56-4.23,1.82-5.03-3.15,1.3-4.57,4.84-5.21,8.02,1.14-.99,2.41-1.63,3.39-2.99m1.85,9.1c-.71-1.54-2.28-2.5-3.67-3.24l-2.13-.25-.49,5.06c-.31,.4-.15,1.17-.22,1.48,2.13-1.51,4.16-2.04,6.51-3.05m-15.39-6.29c.62,.74,1.94,1.23,1.73,2.53,.37,2.53-3.73,2.81-2.16,5.68-.43,.43,.12,1.3-.56,1.63,.49,.31,.99-.4,1.51-.62v-.15c.18,.03,.4-.03,.49,.18-.77,1.85-3.08,2.84-4.57,3.61-1.54,.18-3.52,.86-4.9-.18-.59,.18-.89-.59-.96-1.02,.03-2.65,2.5-3.33,4.26-4.78-1.63-.68-4.04-1.33-4.32-3.42,.43-.8,.46-1.7,1.54-1.91l.34-.49c1.54-.62,2.99-1.39,4.81-1.3,.03-2.22,.06-4.9,1.54-6.69,.56-.12,.99,.25,1.11,.71-.93,1.7-1.23,3.89-1.02,5.86,.37,.12,.65,.49,1.14,.37m.19,3.79c.25-.49,.28-1.3,.06-1.82-.4-.18-.43-1.08-1.11-1.02l-.03,.65c.37,.89,.49,1.88,.37,2.96l.71-.77Zm-1.2,6.2h-.15c-.34-.22-.37-.56-.15-.83-.46-2.81-.71-5.68-1.36-8.42-2.07-.03-3.92,1.2-5.18,2.78,.31,1.26,1.67,1.6,2.71,1.88,.56,.62,1.54,.31,2.1,.89-.06,.34,.09,.77-.22,.99-1.67,1.08-4.5,2.71-4.57,4.26,1.3,1.36,4.75-.52,6.82-1.54m-13.39-6.23l-.22,1.3-3.24,3.49c-.77,.12-1.23,.96-1.85,1.42,.12,.59,.59,1.2,1.11,1.51,1.7,.31,1.91-1.42,3.18-2.19,.89-.12,.31,.89,.46,1.33-.37,.93-1.3,1.85-2.22,2.22-.89,.34-1.85-.03-2.62-.43-.68-.28-.83-1.02-1.26-1.51-1.2,1.02-2.9,1.3-4.44,.83-.86-1.05-1.63-1.97-1.51-3.52-1.3,1.76-2.19,3.83-4.26,4.63-.74,0-1.51-.28-1.76-1.05-.25-1.05-.74-2.01-.71-3.15-.86,1.11-1.26,2.41-1.6,3.73-.4,.25-1.08,.15-1.48-.06,.09-1.26-.71-2.41-.22-3.61-.06-.25-.09-.49-.31-.68l-1.63,4.53c-.65,.86-1.73,.74-2.62,.25-.99-1.45-2.07-1.97-2.34-3.7-1.3,.93-.96,2.62-1.94,3.7-.62,.18-.93-.31-1.3-.71-.03-.52,.18-1.17-.12-1.63-.74,1.08-1.23,2.68-2.56,3.02-1.45,.09-2.44-1.42-2.87-2.41,.03-.93-.59-1.57-.56-2.5-1.82,1.54-2.71,5.09-5.74,4.9-.62-.4-1.45-1.26-1.42-2.19,1.02-3.42,3.58-7.34,7.19-8.45,1.17,.15,1.97-.22,2.93,.43,.83,.56,1.51,1.45,1.73,2.34-.06,.4-.22,.89-.68,.96-1.05-.68-1.02-2.62-2.71-2.38-.74-.31-1.54,.37-2.31,.59-1.97,1.85-4.04,4.2-4.5,6.94l.31,.34c2.01-1.63,3.21-3.58,4.47-5.74,.37-.4,.96-.28,1.48-.28,1.23,1.82,.49,4.38,2.25,5.98,2.01-2.13,2.59-5.03,4.5-7.06,1.7-.46,.83,1.45,1.23,2.19,.4-.22,1.08-.22,1.48,.06,.99,1.45,.86,3.73,2.47,4.5,1.17-1.73,2.01-3.61,2.5-5.65l.93-2.93h.34c.43-2.01,.12-4.57,.56-6.39,.43-.25,1.2-.22,1.48,.37-.4,2.65-.31,5.34-.43,7.71-.28,.93-.31,2.16-.09,3.12,1.45-2.04,3.12-3.55,5.55-4.23,.46-.06,1.02,.12,1.11,.52-.06,1.57-2.04,1.11-2.87,2.19-.49,1.36-.74,3.45,0,4.75,2.44-2.01,3.86-4.81,6.02-7.19,.59,0,1.48,0,1.45,.71-.56,1.76-2.13,4.29-.22,5.89,1.17,.03,2.16-.4,2.99-1.2-.37-1.91,.74-3.7,1.82-5.03,.89-.62,1.88-1.73,3.18-1.7,.68,.22,1.67,.15,1.91,1.08m-1.63,.28l-.65-.03c-1.11,1.14-2.19,2.31-2.75,3.67,1.17-1.45,2.34-2.07,3.39-3.64m-5.24-10.36c.03,.74-.06,1.48-.89,1.6-.52-.09-1.23-.43-1.26-1.02-.09-.49,.12-.83,.52-1.11,.68-.09,1.2,.12,1.63,.52M22.98,1.22l-.06,1.63c-.96,.43-.71-.8-1.45-.86-.31,.43-.56-.12-.83-.18-4.84,.62-9.59,1.85-13.76,3.95-1.82,.56-3.36,1.88-5.18,2.44-.43-.4-.43-.52-.62-1.02-.25-1.33,.99-1.33,1.7-1.91,1.14-.28,2.04-1.26,3.18-1.54,1.45-.96,2.68-1.23,4.23-1.94C13.85,.76,17.4-.5,21.72,.21c.56,.34,.71,.68,1.26,1.02m-1.91,17.52c.71,.31,.56,.74,.77,1.36-.74,.03-.46,1.05-1.17,.62-3.58,1.02-6.05,4.72-6.54,8.45-.28,.22-.12,.65-.52,.8-.43-.25-1.02-.12-1.3-.71,.68-2.13,.46-4.29,.4-6.54,.43-.18,.37-.77,.86-.8,.46,.4,.37,1.02,.62,1.51,1.88-2.28,4.13-3.92,6.88-4.69"/>
      <path class="cls-1" d="M14.75,16.86c.56,.52,1.33,.93,1.08,2.01l-.49-.03c.06-.49-.49-.18-.65-.52-2.96-.31-5,.74-7.59,1.39l-.34,.31c.49,4.04-.28,8.51,.71,12.34-.18,.77-1.02,1.36-1.67,.59-1.11-2.25-.93-5.55-.86-8.24-.31-1.48,.12-2.62-.18-4.1-.8-.06-.86,.65-1.67,.59-1.17-.49-3.02,.96-3.08-.93,.49-1.2,2.1-.89,3.02-1.7,.8-.18,1.33,.52,1.97-.09,.09-.71-.09-1.51,.25-2.13l-.15-.15c.65-3.39,1.08-6.94,1.97-10.27l-.15-.15c.37,.28,1.23,.09,1.11,.86-.89,3.39-.8,7.4-1.2,10.8,.18,.43,.59,.34,.96,.37,.86-.25,1.88-.74,2.99-.71,1.14-.59,2.65-.15,3.98-.22"/>
      <g>
        <path class="cls-1" d="M97.7,35.31c0-.09-.03-.18-.03-.28,0,.09-.03,.19-.03,.28,0,.18-.03,.37-.06,.56l-.25,1.14h.62l-.19-1.14c-.03-.18-.03-.37-.06-.56Z"/>
        <path class="cls-1" d="M36.52,35.1c-.56,0-.52,.71-.52,1.02v1.14c0,.34,.03,.89,.52,.89,.52,0,.52-.56,.52-.96v-1.05c0-.34,0-1.05-.52-1.05Z"/>
        <path class="cls-1" d="M109.82,37.5c.06,.31,.22,.62,.52,.62,.18,0,.34-.09,.46-.22l-.62-1.11c-.15,.03-.43,.34-.37,.71Z"/>
        <path class="cls-1" d="M110.68,35.31c0-.18-.12-.31-.25-.31s-.25,.09-.25,.28,.15,.4,.22,.56c.15-.09,.31-.28,.28-.52Z"/>
        <path class="cls-1" d="M40.38,35.19h-.52v1.11h.56c.25-.03,.43-.18,.43-.59,0-.43-.19-.52-.46-.52Z"/>
        <path class="cls-1" d="M93.99,35.19h-.52v1.11h.56c.25-.03,.43-.18,.43-.59,0-.43-.19-.52-.46-.52Z"/>
        <path class="cls-1" d="M54.66,35.31c0-.09-.03-.18-.03-.28,0,.09-.03,.19-.03,.28,0,.18-.03,.37-.06,.56l-.25,1.14h.62l-.18-1.14c-.03-.18-.03-.37-.06-.56Z"/>
        <path class="cls-1" d="M63.58,35.31c0-.09-.03-.18-.03-.28,0,.09-.03,.19-.03,.28,0,.18-.03,.37-.06,.56l-.25,1.14h.62l-.19-1.14c-.03-.18-.03-.37-.06-.56Z"/>
        <path class="cls-1" d="M86.5,35.31c0-.09-.03-.18-.03-.28,0,.09-.03,.19-.03,.28,0,.18-.03,.37-.06,.56l-.25,1.14h.62l-.19-1.14c-.03-.18-.03-.37-.06-.56Z"/>
        <path class="cls-1" d="M73.02,35.19h-.52v1.11h.56c.25-.03,.43-.18,.43-.59,0-.43-.19-.52-.46-.52Z"/>
        <path class="cls-1" d="M119.91,35.31c0-.09-.03-.18-.03-.28,0,.09-.03,.19-.03,.28,0,.18-.03,.37-.06,.56l-.25,1.14h.62l-.19-1.14c-.03-.18-.03-.37-.06-.56Z"/>
        <path class="cls-1" d="M123.58,35.19h-.52v1.11h.56c.25-.03,.43-.18,.43-.59,0-.43-.18-.52-.46-.52Z"/>
        <path class="cls-1" d="M126.69,33.21H15.73c-1.82,0-3.3,1.48-3.3,3.3v.19c0,1.82,1.48,3.3,3.3,3.3H126.69c1.82,0,3.3-1.48,3.3-3.3v-.19c0-1.82-1.48-3.3-3.3-3.3Zm-106.52,5.43h-.74l-.56-1.45c-.22-.46-.37-.96-.52-1.6,0,.31,.03,.74,.06,1.14,.03,.4,.03,.83,.03,1.14v.77h-.71v-4.04h.74l.56,1.48c.19,.46,.34,.96,.52,1.6-.03-.37-.03-.74-.06-1.14,0-.4-.03-.77-.03-1.14v-.8h.71v4.04Zm3.39-3.45h-1.3v1.02h1.2v.59h-1.2v1.26h1.3v.59h-2.01v-4.04h2.01v.59Zm4.35,3.49h-.86l-.28-1.6c-.09-.43-.09-.86-.15-1.3-.06,.43-.09,.86-.15,1.3l-.25,1.6h-.86l-.74-4.04h.74l.31,2.19c.06,.37,.09,.71,.12,1.05,.03,.09,.03,.19,.03,.28,.03-.52,.09-1.05,.15-1.45l.34-2.1h.59l.4,2.1c.06,.4,.09,.93,.15,1.45,.03-.09,.03-.18,.03-.28,.03-.37,.06-.71,.12-1.05l.28-2.19h.74l-.71,4.04Zm5.24-1.76v1.73h-.71v-1.73l-.99-2.31h.8l.4,1.08c.06,.19,.12,.4,.15,.62,.06-.31,.15-.56,.25-.77l.34-.93h.77l-1.02,2.31Zm4.63-.03c0,1.05-.09,1.85-1.26,1.85s-1.26-.77-1.26-1.85v-.59c.03-1.02,.12-1.79,1.26-1.79s1.23,.77,1.26,1.79v.59Zm3.92,1.73h-.8c-.06-.25-.06-.74-.06-1.02,0-.25,0-.59-.25-.65-.22-.06-.4-.06-.62-.06v.03h-.12v1.73h-.71v-4.04h1.36c.62,0,1.08,.22,1.08,.96,0,.46-.09,.93-.59,.99,.43,.06,.56,.34,.56,.74,0,.15-.03,1.14,.15,1.26v.06Zm2.9,.03l-.68-1.6-.25,.43v1.17h-.71v-4.04h.71v1.79c.12-.31,.31-.65,.46-.96l.43-.83h.8l-.96,1.73,.99,2.31h-.8Zm4.57,0h-.71v-4.04h.71v4.04Zm3.55-3.45h-.83v3.45h-.74v-3.45h-.83v-.59h2.41v.59Zm2.5,3.45l-.18-1.02h-.83l-.18,1.02h-.77l.93-4.04h.96l.86,4.04h-.77Zm3.92,0h-2.04v-4.04h.71v3.45h1.33v.59Zm1.94,0h-.71v-4.04h.71v4.04Zm3.05,0l-.18-1.02h-.83l-.19,1.02h-.77l.93-4.04h.96l.86,4.04h-.77Zm4.29,0h-.74l-.56-1.45c-.22-.46-.37-.96-.52-1.6,.03,.31,.06,.74,.09,1.14,.03,.4,.03,.83,.03,1.14v.77h-.71v-4.04h.71l.56,1.48c.19,.46,.34,.96,.52,1.6-.03-.37-.03-.74-.06-1.14,0-.4-.03-.77-.03-1.14h0v-.8h.71v4.04Zm5.92-.03h-.8c-.06-.25-.06-.74-.06-1.02,0-.25,0-.59-.25-.65-.22-.06-.4-.06-.62-.06h0v.03h-.12v1.73h-.71v-4.04h1.36c.62,0,1.08,.22,1.08,.96,0,.46-.09,.93-.59,.99,.43,.06,.56,.34,.56,.74,0,.15-.03,1.14,.15,1.26v.06Zm3.27-3.42h-1.3v1.02h1.2v.59h-1.2v1.26h1.3v.59h-2.01v-4.04h2.01v.59Zm2.34,3.55c-.86,0-1.17-.52-1.17-1.23v-.31h.71v.25c0,.4,.12,.68,.46,.68,.28,0,.43-.15,.43-.46,0-.22-.09-.4-.28-.52-.37-.31-.86-.52-1.14-.93-.12-.19-.18-.4-.18-.62,0-.71,.37-1.08,1.14-1.08,1.14,0,1.11,.93,1.11,1.33h0s-.65,0-.65,0c0-.34-.03-.71-.43-.71-.25,0-.4,.09-.4,.37,0,.31,.18,.43,.4,.59,.22,.15,.65,.43,.86,.65,.25,.25,.31,.49,.31,.83,0,.77-.46,1.17-1.17,1.17Zm4.6-3.55h-.83v3.45h-.71v-3.45h-.86v-.59h2.41v.59Zm2.5,3.45l-.18-1.02h-.83l-.19,1.02h-.77l.93-4.04h.96l.86,4.04h-.77Zm4.32-1.23c0,.89-.28,1.33-1.2,1.33s-1.23-.43-1.23-1.33v-2.81h.71v2.75c0,.37,.03,.77,.52,.77,.46,0,.49-.37,.49-.77v-2.75h.71v2.81Zm3.95,1.2h-.8c-.06-.25-.06-.74-.06-1.02,0-.25,0-.59-.25-.65-.22-.06-.4-.06-.62-.06h0v.03h-.12v1.73h-.71v-4.04h1.36c.62,0,1.08,.22,1.08,.96,0,.46-.09,.93-.59,.99,.43,.06,.56,.34,.56,.74,0,.15-.03,1.14,.15,1.26v.06Zm2.93,.03l-.19-1.02h-.83l-.18,1.02h-.77l.93-4.04h.96l.86,4.04h-.77Zm4.32,0h-.74l-.56-1.45c-.22-.46-.37-.96-.52-1.6,0,.31,.03,.74,.06,1.14,.03,.4,.03,.83,.03,1.14v.77h-.71v-4.04h.74l.56,1.48c.19,.46,.34,.96,.52,1.6-.03-.37-.03-.74-.06-1.14,0-.4-.03-.77-.03-1.14v-.8h.71v4.04Zm3.52-3.45h-.83v3.45h-.71v-3.45h-.83v-.59h2.38v.59Zm5.09,3.45l-.12-.28c-.28,.25-.52,.34-.89,.34-.59,0-1.02-.52-1.02-1.2,0-.59,.31-.93,.74-1.26-.15-.25-.31-.56-.31-.86,0-.62,.46-.86,.89-.86,.4,0,.8,.31,.8,.83,0,.46-.25,.8-.59,1.02l.46,.86c.09-.25,.12-.49,.12-.74h.56c0,.46-.12,.96-.34,1.36l.46,.8h-.77Zm6.29-.74c-.15,.52-.43,.74-.96,.74h-1.23v-4.04h1.17c.31,0,.59,.03,.8,.31,.15,.25,.18,.46,.18,.74,0,.34-.06,.68-.46,.83,.4,.06,.56,.4,.56,.93,0,.15-.03,.34-.06,.49Zm3.02,.74l-.18-1.02h-.83l-.19,1.02h-.77l.93-4.04h.96l.86,4.04h-.77Zm4.44-.03h-.8c-.06-.25-.06-.74-.06-1.02,0-.25,0-.59-.25-.65-.22-.06-.4-.06-.62-.06h0v.03h-.12v1.73h-.71v-4.04h1.36c.62,0,1.08,.22,1.08,.96,0,.46-.09,.93-.59,.99,.43,.06,.56,.34,.56,.74,0,.15-.03,1.14,.15,1.26v.06Z"/>
        <path class="cls-1" d="M116.24,36.82h-.28v1.2h.15c.15,0,.31,.03,.43-.03,.19-.09,.22-.34,.22-.56,0-.43-.09-.62-.52-.62Z"/>
        <path class="cls-1" d="M116.64,36.08c.06-.09,.06-.25,.06-.43,0-.31-.06-.46-.4-.46h-.34v1.05h.15c.19,0,.4,0,.52-.15Z"/>
      </g>
    </g>
  </g>
</svg>