<?xml version="1.0" encoding="UTF-8"?>
<svg id="Layer_2" data-name="Layer 2" xmlns="http://www.w3.org/2000/svg" viewBox="0 0 156.94 46.31">
  <defs>
    <style>
      .cls-1 {
        fill: #fff;
      }

      .cls-2 {
        fill: #c74993;
      }
    </style>
  </defs>
  <g id="Layer_1-2" data-name="Layer 1">
    <g>
      <g>
        <path class="cls-1" d="M2.36,.61c1.31,0,2.36,1.05,2.36,2.36s-1.05,2.36-2.36,2.36S0,4.27,0,2.97,1.05,.61,2.36,.61ZM.38,8.1h3.99v14.8H.38V8.1Z"/>
        <path class="cls-2" d="M21.4,26.96v-4.75H12.09v-3.79L22.77,4.7h2.9v13.68h2.81v3.83h-2.81v4.75h-4.27Zm-5.04-8.58h5.52v-7.21l-5.52,7.21Z"/>
        <path class="cls-1" d="M37.31,1.82h7.05c4.21,0,7.59,1.4,7.59,5.33,0,2.3-1.12,3.92-2.84,4.62v.13c2.62,.73,3.83,2.71,3.83,4.98,0,3.35-2.65,6.03-8.29,6.03h-7.34V1.82Zm7.5,8.49c1.82,0,2.58-.83,2.58-2.42,0-1.72-.96-2.42-3.22-2.42h-2.65v4.85h3.29Zm-.38,8.96c2.9,0,3.99-1.02,3.99-2.62,0-2.04-1.66-2.71-3.51-2.71h-3.38v5.33h2.9Z"/>
        <path class="cls-1" d="M61.33,8.1h3.73v2.58c.64-1.5,1.59-3.03,3.92-3.03,1.82,0,2.65,1.28,2.65,1.28l-2.23,3.16s-.51-.93-1.37-.93c-1.4,0-2.3,2.3-2.71,4.15v7.59h-3.99V8.1Z"/>
        <path class="cls-1" d="M87.1,21.12c-.7,1.05-2.07,2.23-4.4,2.23-2.65,0-4.91-1.44-4.91-4.21,0-3.44,3.44-5.1,8.8-5.14v-.51c0-2.04-.51-2.81-2.2-2.81-1.44,0-2.2,.64-2.14,2.36l-3.96-.73c-.35-2.71,1.95-4.66,6.32-4.66s5.96,1.72,5.96,5.74v4.43c0,1.44,0,2.3,1.79,2.01l-.73,3.25c-3.06,.38-4.18-.83-4.53-1.98Zm-.51-4.47c-2.74,.03-4.62,.54-4.62,2.2,0,.93,.57,1.44,1.66,1.44,1.4,0,2.84-.89,2.97-2.39v-1.24Z"/>
        <path class="cls-1" d="M99.98,8.1h3.73v2.58c.41-.92,1.72-3.03,4.98-3.03,2.42,0,4.72,1.05,4.72,5.14v10.11h-3.99V13.85c0-1.91-.57-2.78-1.82-2.78-2.36,0-3.35,3.25-3.64,4.5v7.34h-3.99V8.1Z"/>
        <path class="cls-1" d="M132.54,20.96c-.89,1.31-2.17,2.39-4.59,2.39-4.91,0-6.35-4.18-6.35-7.85,0-4.59,2.36-7.85,6.79-7.85,1.91,0,3.03,.64,3.64,1.34V0h3.99V22.9h-3.29l-.19-1.95Zm-.51-5.74c0-2.11-.48-4.5-3.16-4.5-2.17,0-3.09,1.56-3.09,4.85,0,2.61,.57,4.72,2.94,4.72s3.32-1.95,3.32-5.07Z"/>
        <path class="cls-1" d="M147.88,18.28c-.16,1.05,.7,2.01,2.62,2.01,1.24,0,2.33-.45,2.33-1.4,0-2.46-8.23-1.08-8.23-6.6,0-2.71,1.98-4.63,6.03-4.63,3.48,0,6.35,1.5,5.84,4.31l-3.99,.7c.19-.83-.22-1.95-1.98-1.95-1.24,0-1.85,.48-1.85,1.37,0,2.62,8.29,1.05,8.29,6.54,0,3.16-2.81,4.72-6.44,4.72s-6.7-1.37-6.38-4.47l3.76-.61Z"/>
      </g>
      <g>
        <path class="cls-1" d="M0,33.48H3.86c2.07,0,4.11,.72,4.11,3.18,0,1.61-.89,2.49-1.73,2.8v.07c1.56,.38,2.32,1.48,2.32,2.93,0,2-1.43,3.59-4.56,3.59H0v-12.57Zm3.99,5.44c1.46,0,2.17-.68,2.17-2.02s-.74-2.02-2.55-2.02H1.65v4.03H3.99Zm-.23,5.72c2.22,0,3-.88,3-2.17,0-1.65-1.26-2.15-2.72-2.15H1.65v4.32H3.77Z"/>
        <path class="cls-1" d="M13.23,37.32h1.46v1.69c.3-.84,1.1-1.96,2.49-1.96,.99,0,1.43,.78,1.43,.78l-.84,1.2s-.32-.55-.87-.55c-1.29,0-1.92,1.81-2.15,3.12v4.45h-1.52v-8.73Z"/>
        <path class="cls-1" d="M27.48,44.77c-.42,.78-1.45,1.54-2.81,1.54s-2.76-.76-2.76-2.36c0-2,2.13-3.01,5.42-3.02v-.49c0-1.5-.4-2.13-1.75-2.13-1.18,0-1.96,.46-1.86,1.75l-1.5-.27c-.21-1.67,.95-2.74,3.48-2.74,2.24,0,3.16,.97,3.16,3.18v3.46c0,.68-.08,1.37,1.08,1.16l-.3,1.33c-1.65,.21-2.09-.61-2.15-1.41Zm-.15-2.68c-2.68,.02-3.78,.63-3.78,1.75,0,.74,.51,1.22,1.41,1.22,1.16,0,2.3-.91,2.38-2.03v-.93Z"/>
        <path class="cls-1" d="M34.17,37.32h1.46v1.73c.27-.59,1.08-2,3.14-2,1.48,0,2.64,.82,2.64,2.68v6.31h-1.52v-5.88c0-1.31-.46-1.81-1.37-1.81-1.96,0-2.66,2.24-2.83,3.02v4.66h-1.52v-8.73Z"/>
        <path class="cls-1" d="M52.52,44.66c-.51,.97-1.5,1.65-3,1.65-2.72,0-3.5-2.38-3.5-4.49,0-2.78,1.27-4.77,3.82-4.77,1.14,0,2.03,.4,2.57,.99v-5.65h1.52v13.65h-1.29l-.11-1.39Zm-.11-3.21c0-1.2-.32-3.14-2.43-3.14-1.64,0-2.32,1.22-2.32,3.42,0,1.37,.27,3.33,2.19,3.33,1.75,0,2.57-1.69,2.57-3.61Z"/>
        <path class="cls-1" d="M67.03,42.26c.02,1.88,1.18,2.68,2.72,2.68s2.72-.7,2.72-1.92c0-3.18-6.69-1.69-6.69-6.47,0-2.03,1.52-3.35,4.01-3.35s4.32,1.39,4.22,3.37l-1.6,.34c-.06-1.54-.95-2.34-2.7-2.34-1.41,0-2.24,.66-2.24,1.79,0,3.38,6.69,2.02,6.69,6.39,0,1.96-1.52,3.56-4.45,3.56s-4.41-1.94-4.28-3.71l1.6-.34Z"/>
        <path class="cls-1" d="M78.36,41.54c0-2.57,1.29-4.49,4.07-4.49s4.03,1.65,4.03,4.49-1.2,4.77-4.03,4.77-4.07-1.86-4.07-4.77Zm6.47,.19c0-2.21-.84-3.42-2.4-3.42s-2.43,1.26-2.43,3.42,.86,3.33,2.43,3.33,2.4-1.31,2.4-3.33Z"/>
        <path class="cls-1" d="M91.13,32.39h1.52v13.65h-1.52v-13.65Z"/>
        <path class="cls-1" d="M97.77,37.32h1.52v5.9c0,1.29,.42,1.79,1.33,1.79,1.84,0,2.6-1.83,2.87-2.76v-4.93h1.52v8.73h-1.39l-.07-1.6c-.32,.65-1.18,1.86-3.18,1.86-1.52,0-2.61-.8-2.61-2.66v-6.33Z"/>
        <path class="cls-1" d="M109.23,37.32h1.52l.09-2.59h1.39v2.59h2.47v1.22h-2.47v4.87c0,1.08,.21,1.58,.82,1.58,.48,0,.78-.32,.97-1.01l1.16,.51c-.4,.97-1.01,1.75-2.32,1.75-1.73,0-2.15-1.37-2.15-2.76v-4.94h-1.48v-1.22Z"/>
        <path class="cls-1" d="M120.02,33.27c.57,0,1.03,.46,1.03,1.03s-.46,1.03-1.03,1.03-1.03-.44-1.03-1.03,.44-1.03,1.03-1.03Zm-.74,4.05h1.52v8.73h-1.52v-8.73Z"/>
        <path class="cls-1" d="M125.48,41.54c0-2.57,1.29-4.49,4.07-4.49s4.03,1.65,4.03,4.49-1.2,4.77-4.03,4.77-4.07-1.86-4.07-4.77Zm6.46,.19c0-2.21-.84-3.42-2.4-3.42s-2.43,1.26-2.43,3.42,.86,3.33,2.43,3.33,2.4-1.31,2.4-3.33Z"/>
        <path class="cls-1" d="M138.25,37.32h1.47v1.73c.27-.59,1.08-2,3.14-2,1.48,0,2.64,.82,2.64,2.68v6.31h-1.52v-5.88c0-1.31-.46-1.81-1.37-1.81-1.96,0-2.66,2.24-2.83,3.02v4.66h-1.52v-8.73Z"/>
        <path class="cls-1" d="M151.42,43.38c-.09,.93,.55,1.67,2.02,1.67,1.12,0,1.9-.38,1.9-1.18,0-2.13-5.08-1.05-5.08-4.22,0-1.46,1.07-2.61,3.27-2.61,1.84,0,3.42,.84,3.12,2.53l-1.52,.26c.11-.61-.11-1.54-1.67-1.54-.99,0-1.63,.34-1.63,1.08,0,2.19,5.12,.97,5.12,4.2,0,1.73-1.45,2.72-3.44,2.72-1.77,0-3.71-.78-3.52-2.7l1.45-.23Z"/>
      </g>
    </g>
  </g>
</svg>