<?xml version="1.0" encoding="UTF-8"?>
<svg id="Layer_2" data-name="Layer 2" xmlns="http://www.w3.org/2000/svg" viewBox="0 0 95.69 40">
  <defs>
    <style>
      .cls-1 {
        fill: #fff;
      }
    </style>
  </defs>
  <g id="Layer_1-2" data-name="Layer 1">
    <path class="cls-1" d="M60.01,9.64v.11c-.16,0-.27-.21-.32-.32,.11,.05,.22,.1,.32,.21m-.32,4.68c0-.91-.27-1.87,.32-2.56v-.11c.27,0,.48,.27,.64,.37,.27,.11,.53,.21,.85,.27v-.11c.37,0-.59-1.49-.75-1.71,0-.16,.21-.16,.32-.21h-.11c0-.32-.8-.96-1.07-1.07v.11c-.32,0-.53,.16-.75,.32-.02,1.73-2.21,3.8,.56,4.7m6.66,4.75h.42c0,.16-.21,.32-.32,.43v.11c-.14-.02-.1-.38-.1-.54m3.4,13.53c-1.44-.8-3.4-1.28-4.2-2.92-.11-.21-.27-.59-.16-.85,0-.21-.16-.43-.27-.64-.11-.32-.21-.75-.27-1.07,.16,0,.32,.16,.43,.21,0-.16-.05-.32-.05-.53,.05-.43,.27-.96,.05-1.33v-.11c.32,0,.32-.32,.43-.53,.69-1.39,1.92-4.59,3.52-5.11,.27-.05,.48-.05,.69-.11-.11,.48-.27,.96-.43,1.39-.11,.43-.16,.85-.27,1.28-.16,0-.11,.05-.11,.21h.21c0,.11,.05,.05,.11,0,1.12,0,1.28-2.35,1.44-3.08,.11-.64,.69-1.28,.37-1.97s-1.33-.96-2.03-1.01c-.11,.16-.21,.37-.32,.53,0,.37-.59,.53-.85,.64,0,.27-.21-.16-.21-.21h-.05c0,.16-.11,.37,0,.53v.11c-.16-.05-.27-.05-.43-.11h-.11v.11c-.21,0-.43,.59-.64,.75,0-.11-.48,.27-.59,.43-.11,.27-.21,.48-.32,.75-.21,0-.05,.11,0,.21,0,.11,.11,.27,.21,.32v.11c-.21,0-.37-.27-.43-.43-.16,0-.32,.11-.43,.21-.16,0-.11-.05-.11,.11,.21,0,.16,.11,.21,.21,0,.16,.27,0,.43,0s.11-.05,.11,.11c.16,0,.11-.05,.11,.11-.27,0-.69,0-.85,.11h-.11c0-.11-.05-.16-.11-.21,0,.32-.21,.53-.32,.75-.21,0-.05,.11,0,.21,0,.16-.16,.21-.32,.32v.32h.11c0,.21,.16-.05,.21-.11v-.11h.11c0,.37-.53,.48-.75,.64,0,.27,.27,.43,.43,.53v.11c-.21-.05-.43-.05-.64-.11,0,.53-.32,1.49,.11,1.81,0,.16,.05,.11-.11,.11,0,.91-.27,1.33,.32,2.13,.16,0,.11-.05,.11,.11-.16,0-.32,.11-.43,.21q-.11,0-.05,.11c.37,.85,.53,1.81,1.07,2.6,.75,1.17,1.87,1.87,2.88,2.76,.16,0,.11-.05,.11,.11-.27,0-.43,.48-.59,.59-.27,.21-.48,.37-.75,.59-.69,.69-1.39,1.65-1.76,2.56-.05,0-.27,1.01-.32,1.17-.16,.16,0,.27,.11,.32,0,.11-.05,.21-.11,.32-.05,.32-.05,.64-.11,.96,0,.11,.21,.27,.21,.11,0-.27,.16-.53,.27-.75,.16-.32,.32-.75,.59-1.01,.48-.59,1.12-.91,1.55-1.55,.69,0,.96-.48,1.55-.64,.8-.32,1.55-.59,2.35-.85,0-.64,.59-1.12,.16-1.81-.14-.42-.56-.53-.94-.74m-13.58-2.19c0,1.12,0,2.19,.05,3.31-.16,.64-1.01,1.44-1.71,1.44-2.13-.05-2.13-4.15-2.19-5.8-.05-1.28-.27-2.67-.05-3.95,.21-1.12,1.07-3.99,2.13-4.52v-.16c2.57,.58,1.61,7.29,1.77,9.68m-23.06-7.99s-.05-.69-.05-.8c0-1.39,.11-2.08,.43-3.52,.16-.48,.32-.96,.48-1.39,.43-2.24,1.01-4.36,1.49-6.55,.27-1.12,.59-2.29,1.12-3.31,.21,1.07-.43,2.6-.59,3.68-.48,2.4-.96,4.79-1.44,7.19-.43,1.6-.8,3.2-1.23,4.79-.05,.11-.1,.11-.21-.1m-6.39,8.79c-.32,.8-2.19,1.81-2.99,1.97l-.21,.05-.21,.05c-.16,.05-.21,.11-.37,.05-.16-.05-.27-.48-.37-.69-.27-.53-.37-1.17-.37-1.81-.16-3.99,1.39-7.08,3.88-9.75,.21-.21,.43-.59,.53,.11,0,.64,.11,1.44,.11,2.13-.05,1.33-.27,2.92-.16,4.27,.05,.59,.05,1.23,.11,1.81,.03,.59,.26,1.29,.03,1.82m-4.73-2.19v.11c-.21,0-.05-.21,0-.32v.21Zm35.89,4.22c-.21-1.81,0-3.79,0-5.59-.05-1.33-.11-2.67-.21-3.95,0-1.07,.16-2.08,0-3.08-.05-.32-.11-.53-.37-.75l-.21-.11c-.21-.05-.11,.21-.21,.32-.53-.91-1.33-1.28-1.71-1.39-.16,.05-.11,.16-.11,.21-1.44,0-1.71,.59-2.51,1.6-.27,.32-.53,.59-.8,.91-1.33,2.08-1.33,4.75-1.49,7.35-.05,.91,.05,1.97-.21,2.76l-.11,.11c0-1.39-1.71-7.56-3.36-7.14-.75,.21-1.01,1.23-1.44,1.76l-.11,.11s-.05-.59-.05-.75c-.11-.91-1.17-3.72-2.03-4.15-1.28-.59-2.67,3.47-2.76,4.36-.05,.05-.05,.11-.11,0-.05-.27-.11-.59-.16-.85-.11-1.12-.69-5.48-2.56-4.11-1.33,1.01-1.55,5.07-1.97,6.71-.32,1.33-.69,2.6-1.23,3.79-.11,.21-.16,.21-.21,.11-.11-.27-.21-.59-.32-.85-.16-.43-.27-1.07-.21-1.6,.05-.8,.32-1.55,.53-2.24,.11-.43,.16-.85,.27-1.33,.53-1.71,1.12-3.36,1.55-5.11,.85-3.4,.96-7.03,1.65-10.5,.27-1.49,.37-2.99,.69-4.47,.11-.53,.43-1.01,.32-1.6-.05-.32-.37-.59-.64-.69-.59-.21-1.01,.37-1.33,.69-1.71,1.76-1.97,4.43-2.51,6.82-.37,1.71-.75,3.47-.91,5.27-.05,.8-.16,1.6-.21,2.35,0,.48,.11,1.01-.11,1.39,0,.16,.05,.16,.11,.32,0,.21,.05,1.07,.05,1.23,0,.96,0,1.44-.27,2.4-.11,.32-.21,.59-.32,.91-.05,.59-.16,1.23-.21,1.81-.32,1.49-.85,3.04-1.49,4.36-.21,.43-.43,1.17-1.07,.96-1.39-.48-1.17-6.98-1.17-8.68,0-.96,.21-2.51-.11-3.36-.16-.48-.53-.96-.96-1.01-.16,0-.37,.11-.43,.16-.43,.37-.59,.37-1.01,.64-.69,.37-1.33,1.01-1.92,1.65-1.28,1.44-2.35,2.99-3.08,4.63-1.07,2.51-2.29,8.15,1.81,8.52,.21,0,.43,.32,.11,.32-.75,0-1.71,.48-2.4,.75,0,.69,.48,1.33,.32,2.03-.11,.48-.64,.48-.96,.27-2.29-1.55-2.88-6.6-3.04-9.38-.05-1.55,.11-3.2,.16-4.75,.05-1.07,.16-2.03,.32-2.99,0-.27,.21-2.4,.32-2.72,.59-3.04,1.23-6.18,1.23-9.54,0-1.97-.27-3.88-.59-5.7-.11-.59-.21-1.33-.59-1.81-.37-.43-1.12-.64-1.71-.64-.43,.53-.91,1.12-1.33,1.65-1.07,1.55-1.81,3.4-2.4,5.23-.37,1.17-.75,2.35-1.12,3.52-.16,.59-.32,1.12-.48,1.71-.05,.43-.11,.32-.11,.21,0-.43-.37-1.17-.59-1.44-1.39-1.65-2.99,1.28-3.63,2.08,0-.05,.05-.59,.05-.75,.16-1.92-.53-7.14-3.2-6.66-.69,.11-1.07,1.39-1.23,1.92-.69,2.08-.8,4.43-1.23,6.66-.11,.75-.21,1.49-.32,2.24-.11,.69-.32,1.39-.27,2.13,.05,1.17,.27,2.03,.85,2.88v.11c.32,0,.48-.69,.53-.96,.21-1.07,.11-2.24,.27-3.31,.27-1.87,.59-3.63,1.01-5.39,.27-1.01,.21-2.24,.75-3.08v-.11h.11c.05,.16,.11,.37,.16,.53,.11,.48,.16,.91,.27,1.39,.16,1.17,.16,2.4,.27,3.63,.05,.85,.21,1.76,.16,2.67-.16,1.39-.32,2.76-.48,4.2-.16,2.03-.21,4.2-.27,6.34,0,.8-.11,1.65-.05,2.44,.05,.64,.21,1.23,.32,1.81h.11c0-.27,.48-.48,.59-.69,.32-.48,.53-.96,.59-1.55,.05-1.17,.05-2.35,.11-3.56,.16-1.49,.32-2.99,.59-4.43,.05-.43,.05-.85,.11-1.28,.48-2.4,.96-5.07,2.6-6.82l.11-.05c.05,.21,.11,.32,.16,.53,0,.53,.05,1.07,.05,1.6-.16,3.2-.85,6.23-1.01,9.32-.11,1.87-.21,3.79-.21,5.7,0,.85,.16,5.39,.91,5.27,2.08-.37,1.33-6.6,1.6-8.36,.43-3.15,.96-6.23,1.44-9.32,.16-1.28,.32-2.56,.43-3.84,.11-.37,.21-.75,.32-1.12,.21-1.01,.27-1.92,.53-2.88,.16-.75,.48-1.33,.69-2.08,.53-2.03,1.23-3.88,2.6-5.43,.16-.16,.43-.05,.43,.11,0,.48,.27,.96,.27,1.49-.05,2.08-.16,4.11-.27,6.18-.05,1.76-.43,3.47-.64,5.16-.75,6.5-1.23,14.59,1.01,20.34,.37,.96,2.03,3.99,3.31,3.99,1.49,0,2.83-2.4,1.6-3.52,0-1.87,3.04-1.23,3.99-1.92,.75-.53,1.12-1.39,1.55-2.08,.05-.11,.11-.32,.21-.37,0,.37,.37,1.01,.53,1.28,1.17,1.65,2.72,.64,3.63-.64,.11,0,.37,1.49,1.07,1.49,.8,0,1.71-.59,2.19-1.17,.69-.8,1.17-1.44,1.49-2.4,.11-.69,.21-1.33,.32-2.03,.11-.59,.21-1.23,.32-1.81,.11-.85,.16-1.97,.59-2.67v-.11h.11c.11,.96,.16,1.87,.27,2.83,0,.85,.11,1.65,.16,2.44v.64c.16,.96,.32,1.87,.37,2.88,.27,.48,.8,.53,1.28,.27,1.44-.85,1.23-6.12,2.13-7.78,.05-.05,.11-.32,.21-.21,.05,.05,.11,.91,.16,1.07,.32,2.44-.05,5.43,1.23,7.4,.16,.21,.48,.05,.64,.05,1.65-.43,1.81-3.31,1.97-4.75,.11-.53,.21-1.07,.32-1.6,0-.16,.11-.16,.11,0,.11,.48,.21,.91,.27,1.39,.11,.69,.21,1.39,.43,2.03,.16,.53,.43,1.01,.59,1.49,.05,.16,.21,.32,.27,.43,.48,1.33,1.55,1.76,2.76,1.07,.11-.05,.05,0,.21,0,0,1.17,1.87,3.52,3.15,3.56,.91,0,1.44-.53,2.08-1.07,0-.16-.05-.11,.11-.11,0,.59,1.23,2.35,1.97,2.29,.32,0,.48-.48,.75-.59,0-.43-.85-1.39-1.01-1.87-.32-.77-.37-1.73-.48-2.62m15.02-2.56c-.53,0-1.01-.37-1.28-.8-1.23-2.19,.53-4.47,1.49-6.18,.27,.32,.48,.75,.85,.96,.27,.16,.64,.16,.8,.48,.97,1.65,.66,5.54-1.85,5.54m22.26-1.12h-.11v.11c-.53,.16-1.07,.37-1.6,.53-.43,.05-.85,.05-1.28,.11v-.11c.16,0,.16-.11,.21-.21h-1.07c-5.11,0-4.52-7.19-6.6-10.18v-.11c-.11,0-.32,.05-.32,.11-.05,0-.05,.11-.21,.11,0-.21-.37-.27-.53-.32-.53,.69-1.12,1.44-1.65,2.13-.27,.32-.59,.59-.75,.96-.21,.21-.21,.11-.21,0,0-.32,.05-1.01,0-1.23-.11-.27-.43-.37-.64-.43-1.39-.43-2.08,.43-3.15,1.07-.53,.27-1.07,.48-1.65,.75-.32-.05-.64-.05-.96-.11-.27-.05-.64-.43-1.01-.21,0,.16-.11,.32-.21,.43v.11c-.69,0-1.17-.59-2.03-.11-.53,.32-.75,1.07-1.01,1.6-.75,1.44-1.92,5.23-.05,6.34,.27,0,.27,.53,.32,.75,.21-.05,.43-.05,.64-.11v.32c0,.16-.05,.11,.11,.11,0,.21,.11,.05,.21,0,.27-.11,.59,0,.85,0,.96,.11,1.97-.27,2.51-.96,.32-.43,.8-.8,.96-1.39,.05-.32,.05-.59,.11-.91,.05-.21,.16-.43,.21-.64-.05-.21-.11-.43-.16-.64-.11-.53-.59-2.19-.37-2.56,.16-.37,.85-.53,1.23-.69,.48-.21,.91-.48,1.44-.59,0,.69-.32,1.44-.11,2.13-.16,0-.11,.05-.16,.21-.16,1.23-.05,2.51-.05,3.79l.75,.64c.32,0,.48,.21,.75,.11,0,.21,.21,.21,.43,.21,.16,0,.11-.05,.11,.11,.21,0,.43-.69,.43-.96-.05-.37-.27-.8-.21-1.17,.16-.48,.27-1.01,.43-1.49,.53-1.6,1.17-3.52,2.29-4.79v-.11c.48,0,.53,.75,.59,1.07,.85,3.2,1.76,5.96,4.84,7.72,0,.16,1.39,.16,1.6,.43h.21c0-.21,.16,0,.21,.11,.32-.05,.64-.16,.96-.27,1.55-.16,3.04-.53,4.2-1.49-.26-.08-.37-.13-.53-.29m-32.37,5.69v.11c-.16,0-.32-.16-.43-.21,0,.21-.21,.43-.32,.53v.11c-1.55,0-.8-3.95-1.39-4.79,.16,0,.11-1.39,0-1.6,.21,0,.16-.11,.27-.27-.32,.11-.21-.16-.27-.16,0-.16,.16-.16,.32-.21,0-.21-.11-.32-.21-.43,0-.16,.11-.32,.21-.43,.16,0-.11-.27-.11-.43,0-.32,.16-.48,0-.75v-.53c.16,0,.27-.16,.32-.27,.16-.37,0-.64,0-1.01,.11-1.44,.59-4.91-1.17-5.27-.21,.05-.59,1.17-.69,1.81,0,.8-.05,1.55-.11,2.35-.32,3.31-.69,7.24,.05,10.43,.11,.59,.16,1.12,.53,1.6q0,.21,.11,.43h.11c0,.16-.05,.11-.21,.11v.05h.11c0,.11,.32,.27,.43,.32,.32,.27,.91,.59,1.39,.53,.48-.11,1.6-1.92,1.33-2.35-.02,.13-.18,.24-.27,.34"/>
  </g>
</svg>