<?xml version="1.0" encoding="UTF-8"?>
<svg id="Layer_2" data-name="Layer 2" xmlns="http://www.w3.org/2000/svg" viewBox="0 0 346.23 40">
  <defs>
    <style>
      .cls-1 {
        fill: #fff;
      }
    </style>
  </defs>
  <g id="svg8">
    <g>
      <path class="cls-1" d="M121.87,19.38c2.72,0,4.71-.38,6.19-1.3,2.06-1.29,2.94-3.41,2.94-6.11,0-2.92-1.06-4.82-2.71-5.95-1.47-1.03-3.53-1.46-6.59-1.46h-3.55V39.29h-6.03V.81h10.58c3.99,0,7.3,.43,10.13,2.19,4.36,2.81,4.47,7.25,4.47,8.28,0,4.81-2.65,8.44-7.3,10.01-.42,.16-.88,.27-1.36,.38l12.38,17.64h-6.86l-13.64-19.91h1.35Z"/>
      <path class="cls-1" d="M9.75,19.38c2.71,0,4.72-.38,6.19-1.3,2.06-1.29,2.95-3.41,2.95-6.11,0-2.92-1.06-4.82-2.71-5.95-1.47-1.03-3.53-1.46-6.6-1.46h-3.54V39.29H0V.81H10.57c4.01,0,7.31,.43,10.14,2.19,4.35,2.81,4.48,7.25,4.48,8.28,0,4.81-2.65,8.44-7.31,10.01-.41,.16-.88,.27-1.36,.38l12.37,17.64h-6.86L8.39,19.38h1.36Z"/>
      <rect class="cls-1" x="33.44" y=".81" width="6.06" height="38.48"/>
      <polygon class="cls-1" points="78.72 .81 64.24 39.29 59.38 39.29 44.66 .81 51.3 .81 62.68 31.18 73.88 .81 78.72 .81"/>
      <polygon class="cls-1" points="89.41 35.51 106.92 35.51 106.92 39.29 83.34 39.29 83.34 .81 105.54 .81 105.54 4.56 89.41 4.56 89.41 17.33 104.91 17.33 104.91 21.12 89.41 21.12 89.41 35.51"/>
      <rect class="cls-1" x="166.31" y=".81" width="6.06" height="38.48"/>
      <path class="cls-1" d="M192.57,0c3.29,0,6.76,.7,9.93,2.02V7.11c-3.58-2.06-7.33-3.14-10.39-3.14-3.84,0-6.67,1.79-6.67,5.03,0,8.55,19.65,7.03,19.65,19.91,0,6.17-4.55,11.09-13.87,11.09-4.05,0-8.09-.92-11.34-2.55v-5.52c2.66,2.33,7.51,4.06,11.77,4.06,4.49,0,8.02-1.94,8.02-5.84,0-9.14-19.67-7.46-19.67-20.23,0-6.93,5.77-9.92,12.56-9.92"/>
      <polygon class="cls-1" points="218.09 .81 218.09 35.51 234.61 35.51 233.16 39.29 212.03 39.29 212.03 .81 218.09 .81"/>
      <path class="cls-1" d="M247.09,25.34h12.93l-6.53-16.93-6.39,16.93Zm24.94,13.96h-6.65l-3.92-10.17h-15.82l-3.87,10.17h-4.85L251.93,.81h4.85l15.25,38.48Z"/>
      <polygon class="cls-1" points="307.31 .81 307.31 39.29 303.27 39.29 281.21 10.52 281.21 39.29 276.59 39.29 276.59 .81 281.44 .81 302.7 28.53 302.7 .81 307.31 .81"/>
      <path class="cls-1" d="M334.28,6.94c-2.37-1.52-5.48-2.28-10.17-2.28h-3.8v30.73h3.8c4.27,0,7.69-.65,10.17-2.27,3.81-2.44,5.61-7.04,5.61-13.15s-1.79-10.6-5.61-13.04m6.24,28.02c-3.42,2.92-8.43,4.33-14.45,4.33h-11.84V.81h11.84c6.01,0,11.03,1.37,14.45,4.29,3.86,3.35,5.71,8.6,5.71,14.93s-1.84,11.58-5.71,14.93"/>
    </g>
  </g>
</svg>