<?xml version="1.0" encoding="UTF-8"?>
<svg id="Layer_2" data-name="Layer 2" xmlns="http://www.w3.org/2000/svg" viewBox="0 0 153.02 40">
  <defs>
    <style>
      .cls-1 {
        fill: #fff;
        fill-rule: evenodd;
      }
    </style>
  </defs>
  <g id="Layer_1-2" data-name="Layer 1">
    <g>
      <polygon class="cls-1" points="87.54 7.19 82.86 7.19 81.4 11.66 79.93 7.19 75.25 7.19 79.02 4.47 77.63 0 81.4 2.79 85.17 0 83.77 4.47 87.54 7.19 87.54 7.19"/>
      <path class="cls-1" d="M11.94,15.64h-3.42l-1.75,11.24c-.28,1.33-.35,2.58-.42,3.91h-.07c0-.77-.28-3.49-.35-4.05l-1.54-11.1H0l3.77,18.22h4.68l1.26-7.61c.21-1.4,.35-2.86,.42-4.33h.14c.14,1.54,.28,3.07,.56,4.61l1.4,7.33h4.54l3.7-18.22h-4.19l-1.4,11.1c-.14,.49-.35,3.21-.35,3.98h-.14c-.07-1.33-.21-2.58-.42-3.91l-2.02-11.17h0Z"/>
      <path class="cls-1" d="M35.18,33.86c-.21-.84-.35-1.68-.35-2.51v-10.75c.07-2.37-.28-5.38-6-5.38-5.31,0-6.42,2.37-6.35,5.86h3.98c0-1.68,.28-2.65,2.23-2.65,1.12,0,1.75,.14,1.95,.91,.35,1.47-.28,2.3-2.09,3.07-3.28,1.33-6.21,2.3-6.21,6.49,0,3.77,1.47,5.45,4.89,5.45,1.4,0,2.72-.84,3.63-2.37h.07c-.07,.7,0,1.33,.28,1.88h3.98Zm-4.54-7.61c-.14,1.75,.35,4.89-2.16,4.89-1.54,0-1.95-.98-1.95-2.3,0-.77,.07-1.68,.7-2.23,1.12-.91,2.37-1.61,3.42-2.3v1.95h0Z"/>
      <path class="cls-1" d="M46.7,22.48v5.45c0,2.09-.7,3.21-2.09,3.21-1.26,0-1.75-1.4-1.82-3.14v-6.07c.14-1.82-.07-3.49,1.88-3.49s2.02,2.58,2.02,4.05h0Zm-7.89,13.4c.21,3.07,2.51,4.12,5.31,4.12,5.72,0,6.77-2.93,6.77-6.7V15.64h-4.19v1.88h-.07c-.63-1.61-1.75-2.37-3.7-2.3-2.65,0-4.26,1.47-4.33,6.42v6.63c.07,2.86,.84,6.07,4.33,6.07,1.82-.07,3-.63,3.84-2.37l.07,.07v2.09c0,1.4-.28,2.86-2.09,2.86-.49,0-.98-.07-1.26-.28-.28-.14-.49-.42-.49-.84h-4.19Z"/>
      <path class="cls-1" d="M67.16,33.86c-.21-.84-.35-1.68-.35-2.51v-10.75c.07-2.37-.28-5.38-6-5.38-5.24,0-6.42,2.37-6.35,5.86h3.98c0-1.68,.28-2.65,2.23-2.65,1.12,0,1.75,.14,1.95,.91,.35,1.47-.28,2.3-2.09,3.07-3.28,1.33-6.21,2.3-6.21,6.49,0,3.77,1.47,5.45,4.89,5.45,1.4,0,2.72-.84,3.7-2.37h.07c-.07,.7-.07,1.33,.21,1.88h3.98Zm-4.54-7.61c-.07,1.75,.35,4.89-2.16,4.89-1.54,0-1.95-.98-1.95-2.3,0-.77,.14-1.68,.7-2.23,1.12-.91,2.37-1.61,3.42-2.3v1.95h0Z"/>
      <path class="cls-1" d="M75.32,15.64h-4.19v18.22h4.19v-11.94c0-2.02,.07-3.49,2.02-3.49,1.95-.07,2.09,1.33,2.09,2.93v12.5h4.19v-11.94c0-2.16,.35-3.42,2.16-3.49,1.82-.14,1.95,1.47,1.95,3.14v12.29h4.19v-14.8c0-1.95-1.33-3.84-4.4-3.84-2.09,0-3.42,.77-4.26,2.3-.28-1.68-2.37-2.37-3.91-2.3-1.33,0-3.07,.35-3.98,2.3h-.07v-1.88h0Z"/>
      <path class="cls-1" d="M107.92,33.86c-.21-.84-.35-1.68-.35-2.51v-10.75c.07-2.37-.28-5.38-6-5.38-5.24,0-6.35,2.37-6.35,5.86h3.98c0-1.68,.28-2.65,2.23-2.65,1.12,0,1.75,.14,1.95,.91,.35,1.47-.28,2.3-2.09,3.07-3.28,1.33-6.21,2.3-6.21,6.49,0,3.77,1.47,5.45,4.89,5.45,1.4,0,2.72-.84,3.7-2.37h.07c-.07,.7-.07,1.33,.21,1.88h3.98Zm-4.54-7.61c-.07,1.75,.35,4.89-2.16,4.89-1.54,0-1.95-.98-1.95-2.3,0-.77,.14-1.68,.7-2.23,1.12-.91,2.37-1.61,3.42-2.3v1.95h0Z"/>
      <path class="cls-1" d="M116.02,15.64h-4.19v18.22h4.19v-11.94c0-2.02,.07-3.49,2.02-3.49,1.95-.07,2.09,1.33,2.09,2.93v12.5h4.19v-11.94c0-2.16,.35-3.42,2.16-3.49,1.82-.14,1.95,1.47,1.95,3.14v12.29h4.19v-14.8c0-1.95-1.33-3.84-4.4-3.84-2.09,0-3.42,.77-4.26,2.3-.28-1.68-2.37-2.37-3.91-2.3-1.33,0-3.07,.35-3.98,2.3h-.07v-1.88h0Z"/>
      <path class="cls-1" d="M148.76,34c-.21-.84-.35-1.68-.35-2.58v-10.75c.07-2.37-.28-5.38-6-5.38-5.24,0-6.42,2.44-6.35,5.86h3.98c0-1.61,.28-2.65,2.23-2.65,1.12,0,1.75,.14,1.95,.98,.35,1.47-.28,2.3-2.09,3-3.28,1.4-6.21,2.37-6.21,6.56,0,3.7,1.47,5.45,4.89,5.45,1.4,0,2.72-.84,3.63-2.37h.07c-.07,.63,0,1.26,.28,1.88h3.98Zm-4.54-7.61c-.14,1.75,.35,4.89-2.16,4.89-1.54,0-1.95-.98-1.95-2.37,0-.77,.07-1.68,.7-2.16,1.12-.91,2.37-1.61,3.42-2.37v2.02h0Z"/>
      <path class="cls-1" d="M150.02,33.02c0,1.12,.84,1.54,1.54,1.54s1.47-.56,1.47-1.54c0-1.05-.84-1.47-1.47-1.47-.84,0-1.54,.63-1.54,1.47h0Zm.21,0c0-.7,.56-1.26,1.33-1.26,.84,0,1.26,.7,1.26,1.26,0,.91-.7,1.33-1.26,1.33-.91,0-1.33-.7-1.33-1.33h0Zm.7-.84v1.68h.28v-.63h.21c.42,0,.49,.14,.49,.42v.21h.28v-.35c0-.28-.21-.35-.35-.42,.28-.07,.35-.21,.35-.42,0-.35-.28-.49-.7-.49h-.56Zm.28,.21h.21c.35,0,.49,.14,.49,.35s-.14,.28-.42,.28h-.28v-.63h0Z"/>
    </g>
  </g>
</svg>