<?xml version="1.0" encoding="UTF-8"?>
<svg id="Layer_2" data-name="Layer 2" xmlns="http://www.w3.org/2000/svg" viewBox="0 0 40.03 40">
  <defs>
    <style>
      .cls-1 {
        fill: #fff;
      }
    </style>
  </defs>
  <g id="Layer_1-2" data-name="Layer 1">
    <g id="layer1">
      <g id="g40">
        <path id="path10" class="cls-1" d="M33.27,20.25c-.08-.34-.23-.66-.28-1.02-.06-.34-.11-.68-.23-1-.1-.28-.23-.66-.52-.79-.17-.07-.57,.06-.69,.2-.23,.24-.21,.64-.28,.93-.16,.71-.28,1.43-.27,2.15-.01,.69,.17,1.38,.24,2.08,.03,.27,.01,.59,.2,.82,.18,.23,.52,.44,.81,.49,.52,.1,1.26-.4,1.31-.93,.04-.32,.08-.64,.1-.96,0-.32-.04-.66-.08-.99-.06-.32-.21-.65-.3-.97Zm-18.77,3.26c.16,.23,.45,.44,.69,.55,.27,.13,.57,.11,.82-.01,.21-.1,.52-.3,.58-.55,.14-.68,.13-1.36,.08-2.05-.03-.34-.07-.66-.14-.99-.07-.34-.21-.65-.32-.96s-.24-.64-.3-.96c-.06-.31-.2-.65-.4-.89-.18-.23-.35-.2-.58-.07-.31,.17-.34,.41-.42,.73-.17,.69-.35,1.44-.34,2.16,.07,.71,.14,1.41,.18,2.12,0,.27-.03,.68,.14,.92h0Zm.34-6.53c.11-.04,.23-.04,.34-.11,.11-.03,.23-.01,.32-.06,.25-.13,.4-.54,.37-.79-.06-.16-.24-.24-.41-.31-.16-.08-.34-.13-.51-.03-.04,.06-.1,.1-.16,.13-.25,.23-.64,.27-.85,.57-.04,.11-.03,.23-.01,.32,.06,.11,.08,.27,.17,.37,.04,0,.07,.01,.11,.03,.21,.03,.41-.08,.62-.11Zm4.9,2.98c-.14,.23-.3,.45-.47,.68-.16,.21-.35,.4-.47,.65-.1,.24-.32,.42-.47,.64-.07,.11-.16,.2-.24,.31-.13,.14-.21,.32-.31,.49-.16,.28-.01,.55,.31,.76,.2,.13,.48,.04,.73,.01,.11-.01,.24,0,.38-.01,.1,0,.2-.01,.28-.01,.16,0,.3,.01,.44,.03,.48,.03,1.05,.01,1.47,0,.28,0,.59-.01,.88-.08,.27-.06,.45-.23,.64-.42,.16-.17,.25-.34,.32-.59,.03-.08,0-.18-.11-.2-.18-.03-.37,0-.57-.03-.03,0-.07-.01-.1,0-.35,.01-.73,.04-1.1,.03-.23-.01-.44-.03-.66,0-.07-.01-.16,.03-.21-.01,.07-.17,.24-.27,.34-.42,.37-.55,.61-1.17,1.06-1.65,.13-.14,.25-.27,.35-.42,.1-.14,.2-.32,.31-.47,.11-.16,.2-.35,.31-.51s.3-.25,.34-.45c.03-.17-.07-.27-.2-.38-.14-.13-.25-.28-.4-.3-.07-.01-.14,.01-.23,.03-.21,.01-.47-.01-.71,.03-.1,.01-.2,.04-.3,.06-.21,.03-.45-.08-.64-.06-.27-.06-.55-.11-.86-.1-.34,.01-.66-.03-1,.03-.2,.03-.34,.1-.49,.2-.11,.07-.24,.11-.32,.18-.13,.11-.27,.3-.34,.45s-.14,.27-.1,.42v.03s.08,.04,.13,.04c.14,.01,.3-.04,.45-.03,.06,0,.14,.01,.23,0,.45-.03,.93,.01,1.41,0,.2-.01,.51-.03,.71,0-.1,.17-.27,.37-.37,.51-.16,.16-.31,.37-.44,.58h0Zm11.71-4.17c-.2,.01-.4,.01-.57,.07-.03,.04-.07,.06-.1,.08-.13,.14-.07,.38-.06,.57,.04,.14,.01,.3,.1,.42,.08,.13,.23,.16,.38,.14,.11-.03,.21-.08,.32-.1,.24-.07,.54-.14,.79-.21,.11-.03,.14-.06,.21-.18,.07-.16,.16-.37,.13-.52-.28-.35-.82-.28-1.21-.27h0Zm-4.89,3.86c-.16,.21-.35,.41-.48,.62-.11,.18-.18,.41-.35,.57-.14,.13-.24,.27-.35,.42-.07,.1-.1,.21-.17,.3-.21,.28-.42,.57-.64,.86-.16,.21-.44,.47-.25,.72,.07,.1,.28,.3,.41,.37,.07,.04,.13,.04,.24,.04,.25,0,.55-.01,.76-.03,.32-.01,.64-.04,.96-.03,.1,0,.2,.01,.31,0,.32-.01,.65,.03,.93,.01,.21,.04,.42-.04,.62-.01,.25-.07,.55-.11,.78-.3,.13-.1,.25-.25,.34-.4,.07-.11,.24-.37,.2-.49-.04-.11-.23-.1-.31-.1-.21,0-.45,0-.66,.01-.24,.01-.44,.01-.66,.01-.38-.04-.78,.06-1.14-.03-.01-.06,.01-.08,.03-.13,.17-.25,.34-.62,.54-.86,.1-.13,.2-.23,.31-.34,.07-.07,.11-.17,.17-.25,.06-.1,.16-.21,.23-.31,.13-.16,.24-.34,.35-.49,.2-.28,.4-.65,.61-.93,.18-.24,.48-.4,.44-.71,.03-.14-.1-.21-.18-.31s-.14-.2-.23-.27c-.41-.03-.82,.01-1.21,.01-.17,0-.34-.04-.51-.03-.18-.07-.4-.01-.61-.01-.1,0-.18-.01-.27-.01-.17,.01-.34-.01-.51-.01-.3,0-.68,.01-1.02,.04-.2,.01-.44,.23-.58,.35-.17,.16-.3,.35-.37,.57-.03,.08-.1,.24-.04,.31,.07,.11,.38,.04,.49,.03,.17-.01,.34-.01,.52,0,.08,.01,.17-.01,.25-.01,.16,0,.31,.03,.44,.04,.08,.01,.17,0,.24,0,.3,.01,.64-.01,.9,0,0,.06-.07,.13-.1,.18-.11,.21-.27,.4-.42,.59h0Zm-15.98,3.91c.54-.07,1.02-.04,1.51-.07,.24-.01,.45,0,.68,.03,.11,.01,.24,.04,.32,.01,.13-.04,.3-.4,.23-.54-.72-.45-1.53-.72-2.34-.92-.17-.04-.34-.04-.55-.08-.17-.03-.42-.04-.59-.04-.08,0-.16-.01-.18-.03-.08-.06-.01-.16,.03-.21,.31-.47,.54-.95,.85-1.37,.25-.37,.59-.81,.79-1.19,.23-.47,.49-.79,.76-1.17,.13-.18,.3-.38,.37-.51,.14-.25,.31-.51,.49-.73,.1-.13,.25-.24,.25-.42-.21-.17-.45-.52-.73-.44-.48,.13-.93,.13-1.38,.1-.11,0-.21-.03-.32-.04-.11-.01-.21-.04-.32-.06-.25-.06-.54-.1-.79-.16-.48-.11-1-.11-1.48-.06-.48,.04-1.3,.35-1.44,.82-.07,.23-.24,.45-.13,.71,.55,.06,1.1,.08,1.65,.07,.49,.03,.93-.07,1.43,.01,.18,.03,.51-.04,.68,.07,0,0-.58,.83-1.13,1.45-.37,.41-.64,.82-.69,.93-.28,.44-.58,.75-.71,.89-.55,.64-1.2,1.48-1.37,1.71-.18,.25-.45,.58-.54,.81-.07,.17,.04,.41,.21,.49,.07,.13,.2,.21,.31,.31,.42,.21,.85,.23,1.3,.14,.11-.01,.23-.04,.34-.06,.66-.14,1.37-.21,2.01-.38,.16-.06,.34-.07,.51-.08h0Z"/>
        <path id="path12" class="cls-1" d="M39.96,18.71c-.06-.51-.01-1.03-.06-1.54-.1-.95-.3-1.81-.55-2.63-.24-.79-.47-1.67-.85-2.36-.38-.69-.75-1.38-1.12-2.06-.18-.34-.37-.71-.59-1-.11-.16-.27-.27-.38-.42s-.2-.34-.31-.48c-.42-.57-.89-1.2-1.41-1.77-.9-.97-1.86-1.85-2.98-2.57-.49-.31-.95-.64-1.45-.95-.17-.1-.32-.21-.51-.3s-.32-.21-.51-.3c-.71-.34-1.43-.68-2.23-.95-.4-.13-.78-.27-1.17-.42-.18-.07-.4-.16-.59-.21-.21-.06-.45-.07-.68-.13-.41-.1-.82-.27-1.26-.31-.92-.11-1.85-.3-2.85-.3-.49,0-1.07-.04-1.5-.01h-.04c-1.05,.04-1.84,.21-2.67,.42-.14,.03-.28,.01-.42,.04-.2,.04-.3,.16-.48,.18-.17,.03-.32,0-.48,.04-.52,.14-.96,.28-1.45,.42-1.31,.35-2.47,.83-3.46,1.5-.25,.17-.49,.35-.73,.51-.25,.16-.52,.31-.76,.48-.13,.1-.24,.23-.38,.34-.14,.11-.28,.21-.42,.31-.82,.66-1.54,1.37-2.29,2.1-.83,.86-1.54,1.89-2.26,2.85-.11,.16-.14,.32-.23,.51-.17,.34-.41,.61-.57,.95-.32,.69-.72,1.33-1,2.02-.14,.34-.27,.73-.35,1.16-.17,.76-.47,1.6-.65,2.37-.21,.92-.16,1.74-.21,2.75-.03,.49-.08,.96-.08,1.43s.03,.95,.04,1.43c.03,.93,.21,1.78,.4,2.63,.17,.82,.42,1.6,.68,2.36,.24,.75,.55,1.5,.9,2.15,.25,.48,.61,.96,.85,1.43,.08,.17,.17,.34,.27,.48,.41,.61,.79,1.23,1.21,1.81,.21,.27,.48,.52,.73,.78,.52,.51,1,1.02,1.54,1.5,.27,.24,.55,.52,.82,.72,.3,.21,.58,.45,.88,.64,.32,.2,.61,.41,.9,.61,.3,.21,.66,.34,.99,.52,1.02,.55,2.05,.93,3.19,1.37,.55,.21,1.17,.4,1.74,.52,.2,.04,.4,.14,.59,.18,.61,.14,1.2,.28,1.74,.35,.58,.07,1.19,.08,1.77,.1,.59,.03,1.2,.04,1.77,.01,.27-.01,.55-.08,.82-.1,.28-.01,.55-.03,.82-.08,.54-.11,1.09-.18,1.58-.31s.97-.3,1.45-.42c.24-.06,.48-.16,.72-.18,.24-.03,.49-.11,.72-.18,.21-.07,.42-.18,.64-.3,.21-.11,.45-.2,.65-.3,.32-.16,.66-.31,.95-.47,.11-.06,.25-.07,.35-.13,.32-.17,.64-.41,.95-.61,.17-.11,.32-.17,.48-.3l.47-.34c.61-.44,1.16-.93,1.72-1.43,.28-.25,.61-.44,.86-.69,.25-.25,.49-.54,.76-.82,.51-.55,1-1.12,1.43-1.72,.58-.85,1.06-1.75,1.54-2.68,.16-.31,.35-.62,.48-.92,.31-.73,.59-1.51,.86-2.32s.48-1.7,.59-2.58c.13-1.41,.27-2.85,.11-4.39h0Zm-.86,2.87c-.03,.34-.01,.68-.04,.99-.01,.16-.08,.3-.11,.45-.11,.66-.21,1.3-.38,1.91-.17,.58-.34,1.17-.57,1.72-.17,.42-.42,.86-.61,1.33-.34,.95-.85,1.71-1.36,2.51-.18,.3-.4,.59-.58,.88-.4,.59-.88,1.2-1.41,1.7-.16,.14-.27,.31-.41,.47-.4,.44-.92,.86-1.41,1.23-.17,.13-.31,.3-.47,.41-.1,.07-.23,.1-.34,.17-.3,.18-.61,.44-.92,.62-.21,.13-.41,.27-.62,.41-.21,.14-.45,.23-.66,.37-.41,.27-.86,.51-1.33,.73s-1,.45-1.48,.58c-.21,.06-.42,.07-.65,.16-.4,.16-.82,.27-1.24,.38-.1,.03-.2,.08-.3,.11-.13,.03-.25,0-.38,.03-.13,.03-.24,.13-.38,.16-.23,.04-.47,.06-.71,.11-.21,.04-.44,.11-.65,.16-.27,.04-.62,.01-.95,.03-.92,0-1.86,0-2.74-.11-.55-.06-1.07-.17-1.61-.24-.73-.08-1.47-.38-2.19-.57-.25-.06-.49-.13-.73-.2-1.38-.41-2.63-1.1-3.8-1.78-.31-.17-.59-.31-.9-.49-.35-.21-.66-.44-.99-.71-.21-.18-.42-.4-.65-.58-.45-.37-.99-.69-1.36-1.09-.4-.44-.75-.9-1.12-1.36-.18-.23-.32-.48-.51-.71-.18-.23-.42-.42-.51-.71-.88-1.1-1.53-2.58-2.06-4.08-.11-.3-.17-.64-.28-.95-.21-.61-.4-1.3-.49-1.95-.11-.73-.16-1.47-.28-2.2-.25-1.5-.07-2.9,.17-4.25,.13-.66,.14-1.36,.32-1.95,.08-.28,.2-.57,.3-.83,.1-.3,.14-.61,.24-.9,.08-.27,.2-.55,.32-.82,.11-.27,.2-.57,.32-.82,.25-.57,.68-1.09,.99-1.65,.11-.2,.23-.35,.34-.54,.48-.71,.99-1.4,1.48-2.03,.4-.17,.54-.61,.83-.88,.1-.1,.24-.14,.34-.24,.28-.28,.54-.59,.83-.9,.38-.4,.81-.73,1.24-1.07,.32-.3,.73-.42,1.12-.62,.18-.1,.32-.27,.51-.37,.73-.4,1.5-.81,2.3-1.19,.2-.1,.42-.14,.62-.24,.41-.18,.82-.38,1.23-.51,.45-.16,.9-.21,1.4-.34,.92-.24,1.85-.3,2.92-.3,.66,0,1.45-.1,2.02-.08,1.94,.03,3.63,.4,5.16,.92,1.17,.41,2.25,.88,3.26,1.41,.17,.08,.34,.17,.49,.28,.73,.51,1.58,1.02,2.3,1.61,.57,.47,1.19,.92,1.7,1.41,.51,.51,.95,1.12,1.41,1.7,.35,.42,.65,.89,.99,1.36,.11,.16,.25,.28,.34,.42,.28,.44,.55,1.05,.79,1.62,.24,.58,.57,1.06,.78,1.62,.13,.32,.2,.72,.32,1.07,.11,.32,.28,.69,.34,1,.16,.76,.41,1.48,.47,2.3,.04,.58-.01,1.14,.03,1.78,.03,.73-.01,1.43-.06,2.13Z"/>
        <path id="path14" class="cls-1" d="M38.15,17.04c-.01-.2-.08-.41-.1-.61-.03-.21-.08-.41-.13-.61-.1-.4-.18-.79-.3-1.16-.55-1.88-1.43-3.42-2.37-4.89-.21-.32-.41-.61-.64-.83-.47-.51-.86-1.06-1.36-1.53-.51-.47-.93-1.02-1.48-1.43-.55-.4-1.13-.79-1.72-1.17s-1.16-.79-1.78-1.13c-.31-.17-.66-.3-1-.44s-.68-.28-1.03-.42c-1.41-.55-3.02-.88-4.82-.96-.89-.04-1.77-.17-2.67-.13-.3,.01-.64,.07-.95,.1-.61,.07-1.16,.25-1.72,.31-.3,.03-.57,.1-.83,.18-.55,.17-1.1,.23-1.6,.44-.24,.1-.47,.23-.69,.34-.11,.06-.25,.07-.38,.13-.11,.06-.2,.16-.31,.21-.23,.11-.47,.21-.69,.31-.23,.11-.45,.23-.68,.35-.88,.48-1.71,1.02-2.46,1.61-.37,.3-.72,.64-1.07,.99-.48,.51-.95,1.1-1.45,1.58-.08,.07-.17,.16-.25,.25-.73,.85-1.34,1.71-1.86,2.74-.11,.21-.23,.44-.34,.68-.1,.23-.23,.48-.31,.71-.35,.97-.85,1.92-1.05,3.02-.3,1.62-.52,3.69-.44,5.51,.03,.61,.14,1.23,.21,1.82s.16,1.21,.31,1.74c.16,.54,.32,1.05,.48,1.55,.34,1.03,.88,1.86,1.36,2.71,.25,.44,.51,.86,.79,1.26,.58,.79,1.1,1.61,1.78,2.29,.68,.68,1.33,1.37,2.12,1.98,1.13,.86,2.44,1.67,3.86,2.25,.81,.32,1.51,.64,2.42,.82,.27-.03,.52,.08,.78,.14,.59,.16,1.2,.24,1.77,.34,.32,.06,.65,.04,1,.06,.68,.04,1.34,.08,2.03,.08,1.38,0,2.53-.18,3.71-.51,.58-.16,1.17-.27,1.68-.47,1.05-.41,2.18-.73,2.95-1.3,.42-.31,.92-.48,1.33-.79s.85-.58,1.2-.95c.17-.18,.4-.31,.57-.48,.18-.18,.34-.38,.52-.55,.37-.34,.71-.72,1.05-1.09,.65-.72,1.29-1.53,1.82-2.43,.25-.44,.57-.86,.83-1.3,.37-.61,.66-1.23,.95-1.91,.35-.88,.69-1.74,.82-2.81,.04-.4,.11-.79,.14-1.2,.03-.44,.14-.86,.14-1.3,.01-.47,.06-.93,.04-1.4-.01-.44-.08-.89-.1-1.34-.01-.45-.03-.92-.07-1.38h0Zm-.44,3.66c-.01,.52-.13,1.09-.21,1.64-.07,.55-.11,1.12-.23,1.6-.25,.99-.59,1.89-.86,2.74-.35,.58-.58,1.2-.88,1.78-.14,.28-.35,.54-.52,.82-.08,.14-.16,.28-.25,.42s-.13,.3-.21,.44c-.07,.11-.23,.21-.31,.34-.27,.37-.57,.72-.83,1.09-1.02,1.34-2.49,2.25-3.81,3.28-.13,.1-.27,.14-.4,.23-.1,.07-.16,.18-.25,.25s-.21,.13-.31,.18c-.62,.37-1.4,.57-2.05,.96-.34,.07-.65,.21-.96,.31-.35,.1-.69,.14-1.05,.23-.52,.13-.99,.37-1.53,.47-.13,.03-.27,0-.4,.01-.11,.01-.21,.07-.31,.08-.41,.06-.86,.08-1.3,.1-1.33,.06-2.64-.06-3.9-.31-.42-.08-.83-.17-1.24-.25-.76-.16-1.51-.44-2.26-.68-.17-.06-.32-.17-.51-.23-.18-.07-.4-.1-.57-.17-.18-.07-.35-.2-.55-.27-.57-.21-1.09-.54-1.6-.83-.66-.4-1.3-.89-1.89-1.36-.28-.23-.54-.54-.82-.82-.27-.27-.55-.57-.78-.83-.49-.62-1.06-1.16-1.48-1.74-.24-.32-.47-.76-.69-1.13-.07-.13-.18-.24-.25-.35-.06-.11-.07-.23-.13-.34-.14-.28-.32-.51-.44-.79-.23-.57-.52-1.13-.73-1.74-.1-.3-.2-.61-.3-.92-.08-.31-.14-.66-.23-1-.07-.3-.16-.64-.18-.95-.08-.71-.24-1.44-.25-2.16,0-.54,.01-1.12,.04-1.68,.03-.48,.13-.93,.14-1.4,.04-1.38,.55-2.57,.96-3.71,.28-.78,.59-1.53,.95-2.22,.49-1.06,1.16-1.96,1.86-2.87,.45-.59,.96-1.1,1.51-1.64,1.05-1.02,2.33-1.86,3.67-2.63,.25-.14,.47-.31,.71-.48,.49-.35,1.2-.64,1.82-.83,.59-.2,1.23-.38,1.89-.52,1.31-.3,2.9-.41,4.38-.44,.58-.01,1.19,.03,1.78,.1,.32,.04,.65,.04,.96,.08,.61,.08,1.23,.24,1.78,.4,.3,.08,.59,.11,.88,.21,.27,.08,.54,.2,.79,.3,.25,.08,.51,.21,.75,.34,.24,.13,.51,.21,.73,.34,.23,.11,.44,.3,.68,.42,.69,.37,1.34,.83,1.99,1.26,.44,.28,.83,.59,1.24,.92,.4,.32,.69,.76,1.13,1.03,.14,.31,.44,.49,.68,.75,.23,.25,.38,.55,.61,.79,.45,.48,.78,1.12,1.13,1.7,.34,.57,.69,1.2,.96,1.86,.2,.49,.47,.9,.64,1.48,.24,.82,.38,1.86,.55,2.83,.03,.13,.01,.27,.04,.4,.03,.11,.08,.23,.1,.34,.11,.93,.13,1.88,.11,2.78h0Z"/>
        <path id="path16" class="cls-1" d="M25.67,28.92c.23-.16,.42-.3,.62-.45,.07-.06,.13-.1,.2-.14,.06-.03,.1-.07,.16-.1,.37-.28,.68-.58,1-.96,.06-.07,.14-.14,.21-.2s.13-.11,.18-.17c.06-.07,.11-.14,.16-.21,.04-.07,.1-.14,.16-.2,.21-.24,.49-.66,.61-.83,.37-.55,.35-.57,.32-.61-.01-.03-.04-.04-.47-.01-.01,0-.03,.01-.04,.03,0,.01-.58,.81-.82,1.1-.2,.24-.41,.45-.64,.68-.08,.08-.16,.17-.24,.25h-.01c-.3,.32-.58,.62-.89,.89-.14,.11-.3,.23-.45,.32l-.06,.04c-.08,.06-.17,.13-.25,.2s-.18,.14-.27,.2c-.68,.44-1.5,.78-2.57,1.1-.31,.08-.68,.17-1.03,.23-.44,.07-1.02,.14-1.61,.14-.28,0-.59-.04-.85-.07-.07-.01-.14-.01-.2-.03-.1-.01-.2-.01-.3-.03-.13-.01-.25-.01-.37-.04-1.13-.2-2.02-.49-2.85-.97-.08-.06-.18-.1-.27-.16-.25-.14-.51-.28-.72-.44-.17-.13-.34-.25-.49-.4-.16-.13-.31-.27-.47-.38-.28-.2-.49-.42-.68-.62-.04-.06-.1-.1-.16-.16-.13-.14-.27-.27-.37-.42-.21-.32-.61-.93-.81-1.21l-.1-.14s-.03-.03-.04-.03h-.44s-.04,.01-.06,.03c-.01,.01-.01,.04,0,.06,.03,.04,.57,.96,.85,1.36,.28,.38,.54,.73,.86,1.05,.16,.16,.31,.27,.47,.38,.1,.07,.2,.16,.31,.24,.57,.48,1.06,.88,1.7,1.21,.34,.18,.68,.31,1.05,.45,.08,.03,.17,.07,.25,.1,.08,.03,.17,.07,.25,.11,.13,.06,.25,.11,.4,.16,.18,.06,.38,.1,.57,.13,.14,.03,.3,.06,.44,.1,.58,.16,1.13,.17,1.71,.17h.76c1.03,0,2.08-.27,3.07-.57,.68-.21,1.29-.51,1.89-.95,.1-.07,.21-.16,.32-.23h0Zm-6.47-19.69c-1.21,.11-2.09,.31-2.75,.64-.08-.01-.14,.01-.21,.04-.06,.03-.1,.06-.16,.04-.01,0-.03,0-.03,.01-.27,.16-.54,.3-.81,.44-.32,.17-.64,.34-.93,.52-.07,.04-.16,.1-.24,.14-.11,.07-.24,.14-.35,.21-1.06,.71-1.96,1.65-2.73,2.9-.01,.01-.01,.04,0,.06t.3,.04c.06-.01,.21-.01,.25-.01,.01,0,.03-.01,.04-.01,.16-.18,.3-.37,.45-.58,.18-.24,.35-.49,.58-.72,.86-.88,1.98-1.62,3.53-2.32,.1-.04,.2-.1,.28-.14,.18-.08,.35-.18,.52-.23,.81-.25,1.79-.41,2.7-.41,.08,0,.17,0,.27-.01,.1,0,.2-.01,.28-.01,.14,0,.3,.03,.42,.06,.04,.01,.08,.01,.13,.03,.08,.01,.18,.01,.28,.03,.08,0,.17,.01,.24,.01,.38,.06,.78,.16,1.21,.3,.06,.01,.13,.03,.18,.03s.11,.01,.16,.03c.23,.07,.45,.17,.66,.25,.27,.11,.54,.23,.81,.3,1.43,.79,2.64,1.84,3.62,3.12h.01s.01,.03,.01,.04c.07,.08,.16,.24,.16,.24,.01,.01,.03,.03,.04,.03h.54s.04-.01,.06-.03c.01-.01,.01-.04,0-.06-.03-.04-.69-1.03-.93-1.34-.07-.08-.16-.16-.23-.23-.07-.06-.13-.11-.18-.17-.32-.37-.61-.61-.99-.9-.93-.73-1.74-1.2-2.56-1.47-.1-.03-.2-.07-.28-.1-.23-.07-.44-.14-.69-.21l-.11-.03c-.31-.08-.59-.17-.97-.23-.17-.03-.32-.06-.49-.08-.23-.04-.47-.1-.71-.11h-.2c-.41-.08-.83-.13-1.19-.1h0Zm-7.49,20.33c.06-.06,.11-.13,.17-.18s.11-.11,.16-.18c.03-.04,.06-.07,.03-.13-.06-.11-.03-.14-.13-.23l-.37-.35c-.06-.06-.2-.1-.25-.04-.03,.03-.07,.06-.1,.1-.07,.08-.13,.18-.21,.25l-.08,.08c-.11,.13-.23,.25-.35,.4-.2,.21-.4,.41-.59,.62-.07,.07-.13,.14-.2,.21-.04,.06-.1,.1-.14,.16-.1,.11-.2,.24-.31,.35-.03,.03-.04,.04-.07,.06-.08,.08-.16,.18-.24,.27-.08,.1-.18,.17-.27,.27-.04,.06-.1,.1-.13,.14-.04,.06-.06,.11-.01,.18,.07,.13,.2,.27,.31,.37,.06,.06,.14,.11,.21,.16,.13,.08,.23,.03,.31-.07,.04-.04,.06-.08,.08-.13,.08-.1,.2-.16,.28-.25,.08-.08,.14-.2,.21-.28,.08-.08,.2-.17,.27-.25,.04-.04,.04-.11,.1-.14h.01c.08-.08,.18-.17,.27-.25,.14-.16,.25-.31,.4-.45l.3-.31c.14-.13,.25-.24,.35-.35h0Zm2.56,2.06l.13,.08s.11,.04,.17,.07c.16,.08,.2,.07,.28-.08,.08-.13,.16-.24,.23-.37,.04-.07,.07-.13,.08-.21,.03-.1-.14-.17-.21-.21-.18-.11-.37-.18-.55-.3-.1-.06-.18-.13-.28-.18-.06-.04-.13-.08-.2-.13l-.13-.08c-.08-.06-.18-.08-.27-.14-.13-.07-.24-.16-.37-.23-.07-.04-.16-.07-.23-.13-.08-.04-.16-.11-.24-.16-.21-.13-.32,.07-.41,.24-.03,.06-.06,.11-.08,.16-.04,.1-.08,.18-.13,.27-.03,.06-.01,.13,.04,.16,.04,.03,.08,.04,.13,.07,.14,.08,.27,.18,.4,.27l.17,.08c.07,.04,.07,.1,.03,.16l-.25,.47-.17,.3c-.04,.07-.07,.13-.1,.2-.04,.08-.11,.14-.16,.21-.08,.16-.16,.32-.25,.48-.03,.06-.08,.1-.11,.16-.08,.13-.13,.28-.2,.41-.06,.1-.13,.17-.18,.27-.03,.04-.04,.11-.06,.17,0,.06,.04,.13,.08,.16,.13,.11,.28,.2,.42,.28,.04,.03,.07,.06,.11,.08,.03,.01,.04,.01,.07,0,.06-.01,.07,.03,.11-.03,.16-.16,.25-.34,.37-.52,.06-.08,.11-.17,.16-.25,.07-.11,.11-.23,.18-.34,.04-.07,.11-.13,.16-.2,.01-.01,.01-.03,.01-.04,.06-.14,.14-.28,.23-.42,.04-.07,.1-.14,.16-.23,.1-.16,.17-.34,.25-.49,.06-.08,.11-.17,.18-.24,.11,.04,.2,.11,.3,.17,.04,.04,.08,.06,.13,.08h0Zm2.83,2.9v-.44c-.01-.11,0-.23,0-.34v-.57c0-.06-.03-.14-.01-.2,0-.04,.03-.07,.01-.11,0-.38-.03-.75-.04-1.12-.01-.24-.2-.27-.38-.32h0c-.1,0-.24-.06-.32,0-.04,.03-.07,.06-.1,.1-.16,.23-.28,.45-.42,.66-.13,.18-.24,.38-.35,.58-.01,.03-.03,.07-.06,.1-.23,.34-.47,.68-.66,1.05-.04,.07-.07,.13-.13,.18-.01,.01-.03,.03-.03,.04-.03,.08-.08,.16-.13,.23-.1,.14-.16,.3-.25,.45-.03,.06-.14,.21-.16,.27-.03,.1,.07,.14,.14,.17,.1,.03,.2,.04,.3,.07l.3,.08h.04c.11,.04,.16,.01,.21-.1,.04-.11,.1-.23,.16-.32,.03-.06,.03-.04,.08-.03h.03c.18,.04,.37,.1,.55,.16,.07,.01,.13,.04,.18,.06,.06,.01,.07,.01,.06,.08-.01,.06,0,.11,0,.17-.01,.1,0,.17,0,.27h0c0,.06,.01,.08,.06,.1,.04,.01,.08,.04,.13,.04,.04,.01,.07,.01,.1,.01l.37,.1c.07,.03,.14,.06,.21,.07,.07,.03,.18,0,.2-.08v-.06c-.01-.2-.04-.4-.06-.59,0-.25,0-.51-.01-.76h0Zm-1.23-.24c-.07-.01-.14-.03-.21-.07,.14-.23,.3-.45,.45-.68,.01,.03,.04,.44,.04,.51,0,.11,.04,.21,.04,.32l-.32-.08Zm4.82,.95h-.1c-.17,0-.34-.01-.52-.03-.1,0-.21,.01-.31,0-.04,0-.07-.01-.07-.06,0-.07-.01-.16-.01-.23,0-.1,.03-.2,.03-.31,0-.13-.01-.25-.01-.38,0-.11,.03-.23,.03-.34,0-.1-.01-.21-.01-.32,0-.1,.03-.18,.03-.28s-.01-.2-.01-.3c0-.11,.01-.24,.01-.35,0-.04-.01-.1-.01-.14,0-.14,.04-.28,.04-.42,0-.2-.13-.18-.28-.18h-.2c-.1,0-.18-.03-.28-.04-.17,0-.25,.03-.27,.21,0,.1,.01,.21,0,.32,0,.08-.03,.17-.03,.25,0,.1,.01,.2,.01,.28,0,.04-.01,.1-.01,.14v.82c0,.06-.01,.11-.01,.17v.16c0,.06-.03,.1-.03,.16,0,.14,.01,.3,.01,.44,0,.04-.01,.1-.01,.14s.01,.1,.01,.16-.01,.11-.03,.17v.42c-.03,.06-.03,.13-.03,.2,0,.06,.04,.21,.08,.23,.18,.08,.44,.07,.65,.08,.11,.01,.23,.01,.34,.01,.07,0,.14-.01,.23-.01h.49s.07,.01,.1,.01c.07,0,.16-.03,.21-.04,.08-.03,.08-.23,.08-.3,0-.11,.01-.47-.01-.57,0-.03-.04-.07-.1-.07h0Zm2.37,.25c-.03-.13,0-.25-.03-.38-.01-.11-.07-.23-.08-.34-.01-.13-.01-.25-.04-.38-.01-.06-.06-.1-.06-.17h0c-.01-.13-.01-.25-.03-.37-.03-.2-.08-.4-.13-.59l-.07-.42c-.03-.16-.04-.31-.07-.48l-.04-.25s-.01-.16-.04-.24c-.01-.04-.03-.08-.08-.1-.13-.03-.13-.06-.27-.04l-.51,.1c-.07,.01-.18,.1-.18,.17,0,.04,.01,.1,.01,.14,.01,.11,.06,.21,.08,.32v.11c.04,.17,.08,.34,.11,.51,.04,.28,.08,.57,.14,.85,.01,.1,.04,.2,.06,.28,.01,.07,.03,.13,.03,.2,.03,.16,.06,.3,.08,.45,0,.03,0,.06,.01,.1,.01,.13,.04,.24,.07,.35,.03,.13,.03,.25,.06,.37,.01,.07,.03,.13,.04,.2,.01,.07,.06,.11,.13,.13,.14,.01,.32,0,.48-.03,.08-.01,.17-.04,.25-.07,.16-.04,.16-.16,.13-.3-.03-.03-.06-.07-.06-.11h0Zm4.42-1.24c-.13-.14-.27-.28-.41-.44-.17-.2-.32-.38-.49-.58l-.28-.34c-.07-.08-.13-.18-.2-.28l-.17-.21s-.13-.16-.18-.23c-.04-.04-.11-.1-.14-.16-.01-.03-.03-.07-.06-.1-.23-.3-.48-.58-.72-.86-.16-.18-.32-.08-.49-.03h0c-.08,.06-.24,.1-.27,.2-.01,.04-.03,.1-.03,.14,.01,.27,.04,.52,.07,.79,.01,.23,.04,.45,.08,.66,.01,.04,.01,.07,.01,.11,.03,.41,.06,.82,.11,1.23,.01,.07,.01,.14,.01,.21v.06c.03,.08,.03,.17,.03,.25,.01,.17,.06,.34,.07,.51,.01,.06,.01,.25,.04,.31,.04,.08,.14,.07,.21,.04,.08-.04,.18-.08,.27-.13,.1-.04,.2-.07,.3-.11h.04c.1-.06,.13-.11,.1-.23-.03-.11-.06-.24-.07-.35-.01-.06,0-.06,.04-.08h.03c.17-.1,.35-.17,.52-.24,.06-.03,.13-.04,.18-.07s.06-.03,.1,.03c.03,.04,.07,.08,.1,.14,.04,.08,.1,.13,.17,.21h.01c.03,.06,.06,.06,.1,.04l.13-.04,.08-.04,.35-.14c.07-.03,.14-.04,.21-.07s.14-.11,.13-.21c.03,.03,.01,.01,0,0h0Zm-2.02-.45c-.06,.03-.14,.06-.2,.07-.03-.27-.04-.54-.07-.82,.03,.01,.31,.32,.34,.37,.07,.08,.17,.14,.23,.24l-.3,.14Zm5.48-3.02s-.07-.08-.1-.13c-.06-.07-.14-.14-.21-.23-.23-.27-.44-.55-.66-.81-.03-.04-.07-.07-.11-.11-.06-.06-.08-.16-.13-.2-.08-.1-.18-.2-.25-.3-.06-.07-.1-.16-.16-.23-.04-.06-.08-.1-.14-.16-.1-.13-.18-.25-.28-.37-.11-.13-.23,0-.31,.07-.07,.06-.17,.13-.25,.16-.04,.03-.07,.07-.11,.1-.1,.08-.24,.18-.13,.34l.14,.14c.25,.3,.47,.62,.72,.92,.07,.08,.14,.16,.21,.24,.1,.11,.2,.24,.28,.38h-.01c-.31-.07-.62-.18-.95-.28-.07-.03-.16-.03-.23-.06l-.13-.04-.35-.1c-.28-.1-.58-.21-.88-.3-.07-.01-.14-.03-.2,.03-.01,.01-.03,.04-.04,.06-.03,.03-.07,.03-.1,.06-.11,.08-.28,.24-.2,.4,.13,.24,.37,.52,.54,.73,.07,.08,.13,.17,.2,.25,.25,.31,.52,.59,.78,.89,.2,.23,.38,.44,.57,.66,.13,.16,.25,.34,.38,.49,.06,.07,.13,.1,.21,.06,.06-.03,.49-.37,.58-.44,.03-.03,.07-.06,.06-.11,0-.06-.01-.11-.04-.14-.04-.06-.1-.11-.14-.17-.01-.03-.03-.06-.06-.07-.06-.08-.13-.16-.18-.24l-.17-.17c-.1-.1-.18-.21-.27-.31-.06-.06-.11-.11-.16-.17-.04-.04-.08-.11-.1-.17,.14,0,.28,.07,.42,.11,.1,.04,.2,.06,.31,.1,.14,.04,.25,.11,.4,.14,.21,.06,.55,.16,.75,.23,.1,.04,.2,.03,.3,.01,.13-.03,.23-.1,.32-.18s.27-.21,.35-.31c.03-.04,.06-.08,.03-.13-.11-.24-.34-.47-.49-.66h0ZM9.69,7.6l.06,.08,.06-.04-.06,.04c.07,.1,.18,.24,.3,.41l.27,.37s.07,.1,.13,.18c.06,.07,.1,.13,.13,.16l.07,.1c.04,.06,.07,.1,.08,.13l.41,.58h.01c.11,.17,.2,.3,.25,.38h.01s.01,.03,.01,.04l.03,.04s.03,.04,.04,.06c.01,.03,.04,.07,.07,.11,.04,.07,.1,.16,.17,.23l.03,.03s.01,.03,.03,.03h.01s0,.03,.01,.04h.01s.04,.06,.04,.06c.01,.01,.03,.03,.04,.03s.03,0,.04-.01c0,0,.03-.01,.07-.03,0,0,.01,0,.01-.01l.03-.03s.04-.03,.06-.03c.03-.01,.06-.04,.08-.08l.06-.06s.01-.06,0-.08l-.17-.21h-.01s-.04-.06-.04-.06c-.01-.01-.03-.04-.03-.04,0,0,0-.01-.01-.01l-.11-.16s-.08-.1-.13-.17c-.06-.07-.14-.2-.28-.37l-.28-.38c-.06-.07-.1-.14-.14-.2-.03-.03-.06-.07-.08-.11l-.07-.1s.03,.03,.04,.03l.1,.1s.16,.14,.18,.17l.08,.08,.07,.07c.08,.07,.11,.1,.14,.11,.14,.13,.23,.21,.28,.25,.03,.03,.17,.13,.47,.37,.24,.2,.47,.35,.48,.37,.01,.01,.04,.01,.06,.01,0,0,.11-.04,.24-.11,.04-.03,.06-.06,.07-.06l.06-.04s.04-.03,.06-.03c.03-.01,.04-.04,.04-.04,.01-.03,.03-.06,0-.08l-.07-.1c-.06-.07-.14-.18-.24-.32-.11-.14-.2-.25-.27-.35-.01-.03-.04-.07-.08-.13l-.2-.25s-.03-.04-.06-.08l-.28-.4c-.18-.25-.3-.41-.4-.54l-.1-.14c-.04-.06-.07-.08-.08-.11l-.08-.11s-.06-.07-.07-.08c-.03-.03-.06-.08-.11-.14-.04-.06-.08-.1-.11-.14-.01-.01-.03-.04-.04-.04-.01-.03-.04-.06-.07-.11l-.07-.1s-.06-.01-.08-.01c0,0-.07,.03-.11,.04-.01,0-.01,.01-.03,.01-.01,.01-.03,.03-.06,.04-.03,.03-.04,.04-.06,.04-.03,.03-.07,.06-.07,.06-.03,.03-.03,.06,0,.08,0,0,.13,.16,.18,.24,.03,.03,.06,.07,.1,.13l.07,.08c.07,.1,.13,.17,.17,.23,.03,.04,.07,.1,.13,.17s.1,.13,.13,.16l.04,.06s.04,.06,.08,.1c.04,.04,.06,.07,.08,.1l.07,.1s.03,.04,.06,.06l.03,.03s.03,.06,.06,.08l.1,.14s.04,.04,.07,.08l.07,.1c.07,.1,.17,.23,.3,.38h.01s.04,.08,.07,.11l-.32-.23-.16-.14-.04-.03-.06-.06s-.01-.01-.01-.01l-.03-.03-.16-.14c-.18-.17-.58-.54-1.24-1.17-.11-.08-.25-.2-.25-.2-.01-.01-.06-.01-.07,0,0,0-.08,.04-.18,.11-.03,.03-.07,.06-.08,.08l-.1,.07s-.03,.06-.01,.08c.01,.03,.06,.1,.07,.1h0Zm2.46-1.26c.04,.08,.08,.14,.1,.17h.01s.01,.06,.03,.08l.32,.65,.17,.34c.04,.07,.06,.11,.08,.14,0,.01,.01,.03,.01,.04s.01,.03,.01,.04l.44,.85s.01,.03,.03,.06l.03,.04s.01,.03,.03,.06c0,.01,.01,.03,.03,.06l.28,.54s.03,.03,.06,.03h.08s.06-.04,.07-.04l.13-.04s.06-.03,.1-.06c.04-.03,.07-.04,.08-.06h.03s.01-.03,.01-.03c0,0,.01-.01,.03-.01,.16-.1,.24-.18,.27-.25,.03-.06,.06-.11,.06-.17,.01-.1-.01-.25-.1-.52l-.16-.37c-.23-.47-.45-.93-.48-1,0-.03-.01-.04-.01-.04h-.01c-.24-.47-.38-.71-.45-.83-.01-.01-.03-.03-.06-.1-.01-.01-.03-.04-.04-.04-.01-.01-.01-.03-.03-.03-.08-.1-.14-.16-.2-.17-.04-.03-.07-.04-.11-.04-.13-.04-.27-.01-.44,.07-.01,.01-.04,.01-.07,.03l-.07,.03s-.07,.03-.13,.07-.21,.13-.21,.13c-.03,.01-.04,.04-.03,.07,0,0,.01,.06,.04,.13-.03,.04,.01,.1,.06,.2h0Zm.44-.14l.1-.06c.1-.04,.17-.06,.21-.03,.03,.03,.11,.1,.21,.3h.01s.01,.03,.01,.06h0s.01,.04,.01,.04c0,.01,.01,.03,.03,.04,.06,.11,.1,.18,.11,.23,.03,.04,.04,.08,.07,.13l.21,.41s.03,.04,.04,.06v.03s.04,.06,.06,.1l.13,.25c.03,.07,.07,.16,.11,.25,.04,.1,.07,.17,.08,.2,0,.01,.01,.03,.03,.06l.03,.06c.06,.14,.07,.24,.06,.32-.01,.07-.07,.13-.16,.18-.01,0-.03,.01-.06,.03-.01-.01-.03-.04-.04-.06v-.03s-.03-.07-.06-.13l-.11-.24s-.01-.04-.03-.07h-.01s-.01-.04-.03-.06v-.03s-.03-.03-.03-.04l-.16-.31h-.01s-.01-.04-.03-.06l-.06-.11s-.01-.03-.01-.04,0-.01-.01-.01c0-.01-.01-.03-.01-.04,0,0-.01-.01-.01-.03l-.21-.42-.03-.07s-.01-.03-.01-.03l-.25-.49s-.01-.01-.01-.03c-.01-.03-.01-.06-.03-.06l-.14-.3Zm3.5-1.03c.04,.14,.07,.23,.07,.24v.04c.03,.06,.06,.13,.08,.21,.01,.06,.03,.11,.04,.16l.18,.64s.01,.04,.01,.07c.01,.04,.03,.11,.06,.2,.04,.13,.07,.24,.1,.34,.03,.08,.06,.17,.08,.23,.01,.08,.03,.14,.04,.18l.07,.23c.01,.07,.04,.14,.06,.21,.03,.11,.04,.18,.04,.18,0,.01,.01,.04,.04,.04,0,0,.04,.01,.1,.01h.06l.21-.04h.04s.06,0,.08-.01c.06-.01,.1-.06,.11-.06t.01-.03s.01-.07,.01-.1v-.1c0-.07,0-.2-.01-.37l-.06-1.67s0-.08-.01-.13c0-.07-.01-.16-.01-.24v-.42c0-.18,0-.3-.01-.37l-.03-.48s0-.08,0-.08c0-.03-.01-.06-.04-.07,0,0-.06-.01-.13,0-.03,0-.06,0-.08,.01h-.06c-.08,.03-.13,.08-.13,.1-.01,.01-.01,.03-.01,.04,0,0,.01,.51,.06,1.29,.04,.82,.07,1.29,.07,1.48v.23h0s-.04-.18-.04-.18c-.03-.07-.04-.16-.07-.24-.01-.06-.04-.13-.06-.2l-.31-1.02-.04-.13s-.01-.07-.03-.1h0s-.01-.07-.03-.13c-.01-.04-.01-.07-.03-.1h0s-.01-.07-.03-.11c-.01-.04-.01-.07-.03-.08-.07-.31-.17-.54-.17-.54,0-.01-.01-.03-.03-.04-.01,0-.07-.03-.14-.01-.04,.01-.08,.03-.16,.06-.07,.04-.11,.08-.11,.1-.01,.01-.01,.04-.01,.06l.23,.71Zm4.18,2.63l.1,.03s.04,.01,.07,.01h.11s.1,0,.16,.01h.13c.11,0,.23-.03,.32-.07,.11-.08,.18-.21,.24-.38,.06-.16,.08-.42,.11-.81v-.27s.01-.14,.01-.14v-.17s.01-.21,.01-.21v-.37c.01-.1,.03-.17,.01-.21v-.13s.01-.07,.01-.07c0-.06-.01-.11,0-.16,0-.16-.01-.3-.03-.42v-.03c-.01-.06-.01-.1-.03-.13,0-.04-.01-.1-.04-.13l-.03-.06-.04-.06-.04-.06s-.04-.04-.07-.04c-.04-.01-.06-.03-.07-.04t-.03-.01s-.07-.03-.14-.06h-.03s-.1-.01-.14-.03c-.01,0-.04-.01-.07-.01h-.06c-.06-.03-.1-.03-.11-.03h-.13s-.06,.03-.06,.06c0,0-.01,.08-.01,.11v.21s-.03,.06-.03,.08v.14c-.01,.06-.03,.1-.03,.11v.13s-.01,.06-.03,.1v.23c-.01,.08-.03,.16-.03,.21,0,.04,0,.11-.01,.21v.23c-.03,.21-.04,.37-.04,.48v.27s0,.04-.01,.08v.11c-.03,.71-.04,1.19-.04,1.19,0,.04,.03,.06,.06,.07h0Zm.42-.71v-.51c.03-.24,.04-.65,.08-1.23,0-.1,.01-.18,.01-.23v-.4s.01-.08,.01-.08v-.24s.01-.14,.01-.14c.14,.03,.2,.06,.23,.08,.01,0,.01,.01,.03,.01,0,0,.07,.04,.06,.51,0,.17-.01,.34-.01,.52-.01,.17-.03,.34-.04,.52l-.03,.37c0,.1,0,.17-.01,.21,0,.04,0,.07-.01,.1-.01,.2-.03,.31-.04,.45v.06s-.01,.06-.01,.08h0s-.01,.03-.01,.04c-.01,.03-.04,.07-.1,.11-.04,.04-.07,.06-.1,.06-.01,0-.04,.01-.06,.01h-.04s.01-.25,.01-.25c.03-.03,.03-.04,.03-.07h0Zm1.54,.85s.01,.01,0,0c.06,.04,.1,.08,.14,.1,.04,.01,.1,.04,.18,.06,.06,.01,.1,.01,.16,.01h.1c.08-.01,.16-.04,.23-.08,.01-.01,.03-.03,.06-.04,.03-.01,.04-.03,.06-.04l.11-.11c.04-.06,.07-.1,.1-.14,.07-.14,.13-.3,.18-.51l.04-.16s.01-.04,.01-.07v-.04s.01-.03,.03-.03c0,0,0-.01,.01-.01l.03-.11s.01-.06,.01-.08l.23-.95s.01-.06,.01-.08l.03-.1s0-.04,.01-.06v-.03c.03-.13,.04-.21,.04-.25l.03-.11,.04-.13s.01-.1,.03-.17l.04-.2c.01-.07,.01-.16,.01-.16,0-.03-.01-.04-.03-.06,0,0-.03-.01-.06-.01-.01,0-.04-.01-.07-.01l-.13-.04h-.01s-.07,0-.08,0c-.03,0-.04,.03-.04,.06v.07s-.03,.07-.03,.11l-.06,.25s-.01,.07-.03,.13c-.03,.1-.06,.23-.07,.34l-.27,1.19s-.01,.07-.03,.11c-.01,.03-.01,.07-.03,.13l-.04,.21-.04,.17c-.03,.08-.04,.17-.07,.24h0s-.01,.04-.01,.04c-.03,.08-.06,.11-.1,.17h-.01c-.08,.1-.16,.11-.25,.08-.04-.01-.07-.03-.1-.08-.01-.01-.03-.08-.01-.35v-.11s.01-.06,.01-.07,.01-.06,.01-.1c.01-.04,.01-.1,.03-.17,.01-.08,.04-.18,.06-.31,.04-.21,.07-.37,.08-.44v-.04s.01-.03,.01-.03v-.08s.01-.04,.03-.07l.08-.42s0-.04,.01-.06c0-.03,.01-.04,.01-.04l.04-.18c.01-.07,.01-.11,.03-.16l.06-.24c.03-.1,.04-.18,.06-.24,.01-.06,.04-.16,.04-.16,.01-.03-.01-.06-.04-.07,0,0-.03-.01-.07-.03-.03-.03-.07-.03-.1-.04-.04-.01-.14-.04-.14-.04-.03-.01-.06,0-.07,.03l-.03,.04s0,.01-.01,.01v.07s-.01,.03-.01,.04-.01,.01-.01,.03,0,.03-.01,.06v.06s-.01,.01-.01,.01l-.4,1.92c-.1,.45-.14,.79-.14,1.03,0,.13,.01,.24,.03,.32,.01,.11,.06,.18,.1,.24h0Zm1.79-.2h-.01s-.03,.07-.04,.13l-.11,.24-.04,.08s-.01,.03-.01,.04c-.01,.03-.04,.07-.04,.07-.01,.03,0,.06,.03,.08l.08,.04c.06,.03,.11,.03,.14,.04,.04,.01,.07,.03,.07,.03,.03,.01,.07,.01,.08-.01,0,0,.07-.11,.14-.25l.08-.17s.01-.03,.03-.06c0-.01,.01-.03,.03-.06,.01-.06,.04-.08,.04-.08,.01-.01,.01-.03,.03-.06,0-.01,.01-.03,.03-.06,.01-.03,.03-.06,.03-.07,0,0,0-.01,.01-.01,0,0,.01-.03,.07-.11l.04-.1h.03c.08,.04,.16,.07,.2,.1,.01,0,.03,.01,.06,.01l.1,.04s.03,.01,.04,.03h.03s-.03,.17-.03,.17c0,.01,0,.03-.01,.06h-.01s-.03,.1-.04,.17h0s-.01,.04-.01,.07v.03s-.03,.06-.04,.07c-.01,.1-.04,.21-.07,.32-.01,.04-.03,.08-.03,.13,0,.01-.01,.03-.01,.06v.04s.01,.04,.03,.06c0,0,.06,.03,.07,.04,.01,0,.03,.01,.04,.01h.03s.03,.03,.04,.03c0,0,.01,.01,.04,.01h.04s.1,.01,.1,.01c.01,0,.04-.03,.04-.04h.01s.01-.06,.01-.07v-.04s0-.03,.01-.04c0-.03,.01-.04,.01-.07l.03-.16c.01-.06,.01-.1,.03-.13l.07-.25c.03-.11,.06-.2,.06-.23v-.04s.04-.11,.07-.2l.11-.47,.06-.28s.03-.08,.04-.16c0-.04,.01-.07,.01-.08v-.04l.16-.64s0-.03,.01-.03c0-.01,.01-.03,.01-.04,0-.03,.01-.06,.01-.06,.01-.11,.04-.16,.04-.16v-.03s.03-.06,.03-.1v-.08s.03-.06,.04-.11v-.08s.01-.1,.01-.17c.01-.04,.01-.1,.01-.1,0-.03,0-.06-.03-.07,0,0-.07-.06-.16-.11-.01,0-.04-.01-.07-.03l-.11-.04-.13-.04s-.06,0-.07,.03l-.1,.17-.04,.08s-.04,.07-.06,.1c0,.01-.01,.03-.01,.04-.01,.01-.03,.04-.04,.06-.01,.03-.03,.04-.04,.07l-.2,.4s-.06,.1-.07,.14c-.04,.1-.11,.24-.17,.34l-.25,.49s-.03,.06-.06,.13l-.04,.08v.03s-.01,.01-.03,.03l-.03,.06v.03s-.04,.04-.04,.06-.01,.03-.01,.04c-.01,.01-.04,.06-.08,.16l-.17,.35c-.11,.04-.14,.08-.16,.13h0Zm.85-.69c.03-.06,.06-.11,.07-.16v-.03c.04-.06,.06-.1,.07-.13v-.04s.06-.08,.08-.14,.07-.13,.08-.2l.17-.37,.07-.13c.11-.21,.18-.37,.24-.47-.01,.04-.01,.11-.04,.2,0,.01-.01,.03-.01,.06v.03s-.01,.03-.01,.04-.01,.04-.01,.06v.03s0,.04-.01,.06c-.01,.06-.01,.08-.01,.11,0,0,0,.01-.01,.08l-.03,.1s-.01,.04-.01,.07l-.03,.08s-.01,.04-.01,.06-.01,.04-.01,.08c-.01,.04-.01,.07-.03,.08-.03,.07-.04,.14-.04,.2t-.01,.03s-.01,.03-.01,.03l-.03,.07s0,.03-.01,.04v.03s-.01,.03-.01,.04l-.06,.23-.18-.07c-.06-.03-.08-.04-.1-.04h-.01s-.06-.04-.06-.04Zm1.05,1.54s-.03,.04-.04,.07v.03s-.04,.06-.04,.08c0,.01-.01,.04-.03,.07,0,.01-.01,.03-.01,.03t-.01,.03s-.01,.03-.01,.03v.03s-.03,.03-.03,.04l-.03,.04v.04s-.03,.04-.03,.04c0,.01,0,.04,.01,.06,0,.01,.03,.04,.08,.07l.06,.03s.04,.01,.06,.03c.07,.04,.14,.07,.18,.1,.03,.01,.06,.03,.08,.06,.1,.06,.2,.11,.25,.13,.01,.01,.04,.03,.07,.04t.03,.01s.03,.01,.04,.01h.03s.03,.03,.03,.03c.01,0,.06,.03,.1,.04h.03s.01,.03,.03,.03h.01s.03-.01,.04-.03l.07-.11s0-.01,.01-.01c.01-.01,.03-.04,.04-.07l.06-.17s0-.06-.03-.08c0,0-.1-.04-.23-.11l-.11-.06c-.07-.04-.13-.07-.17-.08l-.14-.08,.1-.18c.03-.06,.13-.23,.16-.3l.66-1.37,.03-.07s.03-.07,.04-.08h.01s.04-.08,.08-.16c.08-.17,.18-.34,.27-.48l.06-.1c.06-.08,.1-.17,.13-.21,.04-.06,.06-.1,.06-.11s0-.04-.01-.06c0,0-.03-.04-.08-.07l-.14-.08s-.07-.03-.08-.03c-.03,0-.04,0-.06,.01,0,0-.04,.04-.07,.1l-.06,.11-.11,.2s-.1,.16-.14,.23c-.04,.07-.06,.11-.07,.14-.01,.01-.01,.03-.03,.04-.01,.01-.01,.03-.04,.06-.01,.01-.03,.04-.04,.07,0,0-.01,.01-.01,.03,0,0-.01,.03-.03,.07-.01,.03-.04,.04-.06,.07l-.08,.16s-.04,.06-.06,.08c0,0-.01,.01-.01,.03s-.03,.06-.04,.08l-.06,.1c-.07,.11-.14,.27-.24,.44l-.08,.17c-.13,.25-.28,.54-.31,.59l-.07,.17Zm1.57,.93s-.03,.04-.06,.06l-.03,.03s-.04,.06-.04,.07-.03,.03-.04,.06c0,.01-.01,.01-.01,.03s-.01,.01-.01,.01l-.03,.03v.03s-.03,.03-.03,.04l-.03,.04s-.01,.01-.01,.03c0,0,0,.01-.01,.01v.04s-.01,.04-.01,.06,.03,.04,.07,.08l.06,.04s.04,.03,.04,.03c.07,.06,.13,.1,.17,.13,.01,.01,.04,.04,.07,.06,.1,.07,.18,.14,.24,.17,.01,.01,.04,.03,.07,.06,.01,.01,.01,.03,.03,.03,0,0,.01,.01,.03,.01h.03s.03,.03,.03,.03l.03,.03,.03,.03s.03,.01,.06,.01h.01s.03,.01,.04,.01h.01s.03-.01,.04-.03l.07-.11s0-.01,.01-.01c.01-.01,.03-.04,.04-.06,.01-.01,.03-.03,.03-.04,.01-.01,.03-.04,.04-.06,.01-.03,.03-.04,.03-.04,.01-.01,.01-.03,.01-.06,0-.01-.01-.03-.03-.04,0,0-.1-.06-.23-.14l-.11-.07c-.07-.04-.13-.08-.16-.11l-.13-.1,.13-.17c.04-.06,.16-.21,.2-.28l.9-1.24,.04-.06s.04-.06,.06-.08h.01s.04-.08,.1-.14c.1-.14,.21-.3,.31-.42l.08-.11c.06-.07,.11-.16,.16-.2s.06-.1,.07-.1c.01-.01,.01-.04,0-.06,0-.01-.03-.04-.07-.08l-.13-.1s-.07-.04-.07-.04c-.03-.01-.04,0-.06,.01,0,0-.04,.03-.08,.08-.03,.04-.06,.08-.07,.1l-.14,.18s-.11,.14-.17,.21c-.04,.06-.07,.1-.08,.13-.01,.01-.01,.03-.03,.04-.01,.01-.03,.03-.04,.06-.01,.01-.03,.04-.06,.07h-.01s-.01,.04-.04,.08c-.03,.01-.04,.04-.06,.07l-.1,.14s-.04,.06-.07,.08h-.01s-.03,.06-.06,.1l-.07,.1c-.08,.11-.18,.24-.31,.42l-.1,.14c-.17,.24-.35,.49-.4,.54l-.16,.14Zm.41,1.09l.03-.03-.03,.03Zm1.67-.59s-.07,.08-.13,.13l-.93,.93s-.03,.07,0,.08l.06,.07h.01s.01,.03,.01,.03l.04,.04,.03,.03,.1,.08s.03,.01,.04,.01,.03,0,.04-.01c.01-.01,.06-.04,.08-.07l.04-.04,.03-.03h.01s.21-.24,.21-.24l.04-.04,.03-.03,.03-.03s.03-.01,.03-.03l.82-.86c.14-.06,.31-.11,.45-.2l.2-.1h.01s.01-.03,.04-.04c.03-.01,.04-.01,.04-.01h.03s.07-.04,.11-.07c.01-.01,.04-.03,.06-.03s.01-.01,.01-.01h.01c.14-.07,.25-.16,.49-.3h.01s.04-.04,.08-.07l.07-.04c.08-.04,.14-.08,.18-.11,.01-.01,.03-.04,.01-.07,0,0-.01-.04-.06-.07l-.03-.03s-.08-.07-.13-.11c-.06-.06-.11-.07-.11-.07-.03-.01-.04-.01-.07,0l-.03,.03s-.04,.01-.06,.04c-.01,0-.03,.01-.04,.01h-.04s-.04,.04-.04,.04l-.44,.3c-.1,.07-.17,.11-.18,.13-.07,.04-.13,.07-.16,.08l-.14,.07s-.03,.01-.04,.03c.04-.07,.08-.17,.16-.3l.3-.54s.06-.1,.1-.18c.01-.03,.03-.07,.04-.07l.03-.04h.01c.03-.07,.06-.1,.06-.1,.01-.01,.01-.04,0-.06,0-.01-.03-.08-.11-.16-.11-.11-.2-.13-.21-.14-.03-.01-.06,0-.07,.03,0,.01-.4,.75-.62,1.2l-.08,.18s0,.01-.01,.03c0,0,0,.01-.01,.01,0,.01-.01,.03-.03,.04l-.03,.06s-.01,.03-.03,.04c-.01,.01-.01,.04-.03,.06h-.01s-.07,.18-.07,.18l-.23,.24s.03,.06-.01,.08h0Zm-11.19-5.69s.08,0,.3-.01v.47s.01,.27,.01,.27l.07,1.79v.32s.01,.08,.01,.1v.18c-.14,.01-.23,.04-.23,.04-.03,.01-.06,.03-.04,.07v.32s.04,.06,.07,.06h.16c.07,0,.11-.01,.16-.01h.14s.1-.03,.2-.03c.14-.01,.3-.01,.3-.01,.03,0,.06-.03,.06-.07v-.34s-.03-.06-.06-.07c-.01,0-.07-.01-.3,0h0s-.01-.2-.01-.2v-.28s-.01-.1-.01-.17l-.03-.55v-.21s-.01-.08-.01-.2v-.04s0-.04-.01-.08v-.27s-.01-.42-.01-.42v-.47s-.01-.25-.01-.25c.2-.03,.3-.03,.3-.03,.01,0,.04,0,.04-.01,.01-.01,.01-.03,.01-.04v-.27s-.01-.03-.01-.04c-.01-.01-.03-.01-.04-.01,0,0-.47,.03-.52,.03-.03,0-.06,0-.08,.01-.06,.01-.14,.01-.2,.01-.1,0-.24,.03-.25,.03-.03,0-.06,.04-.06,.07v.28s.06,.04,.08,.04h0Zm-4.34,1.23s.04,.04,.07,.03c0,0,.06-.01,.16-.06,.03-.01,.07-.03,.11-.06h.01l.14,.37c.01,.06,.04,.13,.08,.24l.61,1.57c.03,.07,.06,.14,.06,.17l.04,.13s.03,.07,.04,.08l.1,.24s-.04,.01-.06,.01c-.1,.03-.24,.08-.25,.1-.03,.01-.04,.06-.03,.08l.1,.24s.03,.04,.06,.04h.01s.14-.03,.51-.17c.37-.14,.52-.2,.52-.21,.03-.01,.04-.06,.03-.08l-.1-.25s-.06-.04-.08-.04c0,0-.1,.04-.17,.06-.03,.01-.08,.03-.14,.06-.01-.03-.03-.07-.03-.1l-.07-.17s-.03-.07-.03-.1v-.03s-.03-.03-.03-.06l-.03-.06s-.04-.08-.06-.16l-.2-.49s-.01-.03-.03-.07l-.04-.13s-.04-.07-.07-.17v-.04s-.03-.04-.04-.07l-.1-.24c-.03-.08-.04-.14-.07-.18-.01-.04-.04-.11-.08-.21l-.16-.41c-.03-.07-.06-.14-.07-.2,.14-.07,.27-.13,.27-.13,.03-.01,.04-.06,.04-.08l-.11-.3s-.04-.04-.07-.04c-.01,0-.11,.01-.47,.18-.35,.17-.54,.27-.55,.27-.03,.01-.04,.06-.03,.08l.2,.35Zm-5.83,3.77s.06,.03,.08,0c0,0,.08-.07,.14-.11l.11-.11,.32,.34s.08,.1,.17,.2l1.21,1.27c.06,.06,.1,.1,.13,.14l.1,.1s.06,.06,.07,.07l.11,.11c-.11,.14-.2,.24-.2,.24-.03,.03-.01,.07,.01,.08l.25,.21s.03,.01,.04,.01,.03,0,.04-.01c0,0,.04-.03,.11-.11,.04-.06,.07-.08,.1-.13l.16-.18s.03-.03,.03-.04l.04-.06c.1-.13,.25-.3,.25-.3,.03-.03,.03-.07,0-.08l-.21-.2s-.06-.03-.08,0l-.25,.23-.1-.14s-.06-.06-.07-.08l-.03-.03-.04-.04-.04-.04s-.07-.06-.11-.11l-.38-.4-.06-.06-.08-.1s-.07-.06-.14-.13l-.03-.03-.06-.06-.18-.2c-.06-.07-.1-.11-.13-.14s-.08-.1-.17-.18l-.3-.32c-.06-.06-.11-.11-.16-.17,.01,0,.01-.01,.03-.03,.08-.07,.21-.21,.21-.23,.03-.03,.01-.07,0-.08l-.2-.17s-.06-.03-.08,0c0,0-.1,.07-.32,.28-.01,.01-.04,.04-.08,.07-.3,.28-.42,.44-.44,.44-.03,.03-.01,.07,0,.1l.21,.18Z"/>
      </g>
    </g>
  </g>
</svg>