<?xml version="1.0" encoding="UTF-8"?>
<svg id="Layer_2" data-name="Layer 2" xmlns="http://www.w3.org/2000/svg" viewBox="0 0 283.37 34.04">
  <defs>
    <style>
      .cls-1 {
        fill: #fff;
      }
    </style>
  </defs>
  <g id="Layer_1-2" data-name="Layer 1">
    <g>
      <path class="cls-1" d="M1.92,6.88V.7H24.11V6.13l-8.33,7.91c1.12,.19,2.22,.48,3.29,.89,1.07,.41,2.01,.98,2.83,1.71,.82,.73,1.48,1.64,1.98,2.72,.5,1.08,.75,2.38,.75,3.91s-.28,3-.83,4.31c-.55,1.31-1.34,2.45-2.36,3.42-1.02,.97-2.27,1.72-3.74,2.25-1.47,.53-3.12,.8-4.93,.8-2.97,0-5.49-.53-7.56-1.58-2.08-1.05-3.82-2.43-5.22-4.13l4.96-4.74c1.12,1.28,2.3,2.26,3.54,2.93,1.23,.67,2.69,1.01,4.38,1.01,1.37,0,2.49-.36,3.35-1.07,.86-.72,1.29-1.7,1.29-2.94,0-1.37-.55-2.41-1.66-3.13-1.11-.72-2.69-1.07-4.75-1.07h-3l-1.12-4.58,7.82-7.85H1.92Z"/>
      <path class="cls-1" d="M50.67,9.27c-.53-.41-1.05-.77-1.55-1.1-.5-.33-1.02-.6-1.55-.82-.53-.22-1.09-.39-1.69-.51-.59-.12-1.23-.19-1.92-.19-1.03,0-1.93,.2-2.69,.59-.77,.39-1.42,.93-1.97,1.6-.55,.68-.98,1.48-1.29,2.43-.31,.94-.53,1.95-.66,3.02,.81-.53,1.74-1.01,2.79-1.45,1.05-.44,2.38-.66,4-.66s3.14,.23,4.54,.68c1.41,.45,2.62,1.12,3.65,1.99s1.84,1.97,2.44,3.28c.59,1.31,.89,2.83,.89,4.54s-.32,3.22-.96,4.61c-.64,1.39-1.51,2.59-2.62,3.61-1.11,1.01-2.43,1.79-3.96,2.34-1.53,.55-3.18,.82-4.96,.82-2.15,0-3.98-.3-5.48-.89s-2.83-1.47-3.98-2.62c-1.19-1.19-2.13-2.74-2.83-4.66-.7-1.92-1.05-4.52-1.05-7.8,0-2.53,.29-4.89,.87-7.07s1.46-4.08,2.65-5.69c1.19-1.61,2.69-2.87,4.5-3.79,1.81-.92,3.93-1.38,6.37-1.38,1.12,0,2.15,.08,3.09,.23s1.81,.39,2.62,.7c.81,.31,1.59,.69,2.34,1.14,.75,.45,1.48,.95,2.2,1.51l-3.79,5.55Zm-3.64,10.26c-1.02-.91-2.42-1.36-4.21-1.36s-3.17,.44-4.16,1.33c-.99,.89-1.48,2.04-1.48,3.44s.51,2.62,1.53,3.54,2.42,1.38,4.21,1.38,3.17-.45,4.16-1.36,1.48-2.08,1.48-3.51-.51-2.56-1.53-3.46Z"/>
      <path class="cls-1" d="M88.91,23.74c-.7,2.06-1.69,3.86-2.97,5.39-1.28,1.53-2.82,2.73-4.61,3.61-1.8,.87-3.79,1.31-5.97,1.31s-4.18-.43-5.97-1.29-3.32-2.05-4.59-3.58c-1.26-1.53-2.24-3.32-2.93-5.36-.69-2.04-1.03-4.27-1.03-6.67s.35-4.6,1.05-6.67c.7-2.08,1.69-3.88,2.97-5.41,1.28-1.53,2.82-2.73,4.61-3.61,1.79-.87,3.79-1.31,5.97-1.31s4.18,.43,5.97,1.29c1.79,.86,3.33,2.05,4.59,3.58,1.26,1.53,2.24,3.32,2.93,5.38,.69,2.06,1.03,4.28,1.03,6.65s-.35,4.64-1.05,6.7Zm-6.86-10.77c-.34-1.28-.83-2.39-1.45-3.33-.62-.94-1.38-1.67-2.27-2.2-.89-.53-1.88-.8-2.97-.8s-2.08,.26-2.95,.77c-.87,.52-1.62,1.23-2.25,2.15-.62,.92-1.1,2.02-1.43,3.3-.33,1.28-.49,2.67-.49,4.17s.17,2.89,.52,4.17c.34,1.28,.83,2.39,1.45,3.33,.62,.94,1.38,1.67,2.27,2.2,.89,.53,1.88,.8,2.97,.8s2.08-.26,2.95-.77c.87-.52,1.62-1.24,2.25-2.18,.62-.94,1.1-2.04,1.43-3.3,.33-1.26,.49-2.65,.49-4.14s-.17-2.89-.52-4.17Z"/>
      <path class="cls-1" d="M100.36,10.97c.25,.63,.7,1.2,1.36,1.71s1.56,.99,2.72,1.41c1.15,.42,2.64,.82,4.45,1.2,3.65,.81,6.35,1.94,8.08,3.38,1.73,1.44,2.6,3.42,2.6,5.96,0,1.41-.28,2.69-.83,3.85-.55,1.16-1.32,2.14-2.29,2.95-.98,.81-2.15,1.44-3.52,1.88-1.37,.44-2.87,.66-4.5,.66-2.62,0-5.02-.42-7.19-1.27-2.17-.85-4.24-2.16-6.21-3.93l2.29-2.72c1.72,1.56,3.45,2.72,5.2,3.49,1.75,.77,3.76,1.15,6.04,1.15s3.99-.52,5.31-1.55c1.33-1.03,1.99-2.39,1.99-4.08,0-.78-.13-1.48-.38-2.09-.25-.61-.69-1.16-1.31-1.66-.63-.5-1.49-.95-2.6-1.36-1.11-.41-2.53-.8-4.25-1.17-1.88-.41-3.51-.88-4.91-1.41-1.39-.53-2.54-1.17-3.45-1.92-.91-.75-1.58-1.63-2.02-2.63s-.66-2.19-.66-3.56,.26-2.52,.8-3.61c.53-1.09,1.28-2.04,2.25-2.84,.97-.8,2.11-1.42,3.42-1.88,1.31-.45,2.75-.68,4.31-.68,2.4,0,4.5,.33,6.3,.99s3.54,1.66,5.22,2.99l-2.15,2.86c-1.53-1.25-3.07-2.15-4.61-2.72-1.55-.56-3.16-.84-4.85-.84-1.06,0-2.02,.14-2.88,.42-.86,.28-1.59,.66-2.2,1.13-.61,.47-1.08,1.03-1.41,1.69-.33,.66-.49,1.36-.49,2.11s.12,1.49,.38,2.11Z"/>
      <path class="cls-1" d="M129.63,26.2c.5,1.01,1.14,1.87,1.92,2.58,.78,.7,1.65,1.23,2.62,1.59,.97,.36,1.98,.54,3.04,.54,1.69,0,3.13-.31,4.33-.94,1.2-.62,2.3-1.45,3.3-2.48l2.25,2.01c-1.22,1.37-2.61,2.47-4.17,3.3-1.56,.83-3.5,1.24-5.81,1.24-1.66,0-3.22-.3-4.68-.91-1.47-.61-2.75-1.47-3.85-2.58-1.1-1.11-1.97-2.44-2.62-4-.65-1.56-.97-3.28-.97-5.15,0-1.75,.29-3.4,.87-4.94,.58-1.55,1.38-2.89,2.41-4.03,1.03-1.14,2.25-2.04,3.68-2.69,1.42-.66,2.97-.98,4.66-.98,1.78,0,3.37,.34,4.78,1.01,1.41,.67,2.59,1.58,3.56,2.74,.97,1.16,1.7,2.51,2.2,4.07,.5,1.56,.75,3.23,.75,5.01v.51c0,.19-.02,.39-.05,.61h-19.15c.12,1.31,.44,2.48,.94,3.49Zm14.56-6.16c-.09-1.09-.32-2.14-.68-3.14-.36-1-.85-1.87-1.49-2.62-.64-.75-1.41-1.35-2.33-1.8-.92-.45-1.98-.68-3.19-.68-1.06,0-2.03,.21-2.93,.63-.9,.42-1.69,1-2.37,1.73-.68,.73-1.24,1.6-1.68,2.6-.43,1-.71,2.09-.84,3.28h15.5Z"/>
      <path class="cls-1" d="M157.82,33.48h-3.61V9.27h3.61v6.32c.44-1,.98-1.92,1.64-2.76s1.4-1.57,2.25-2.18c.84-.61,1.76-1.07,2.76-1.38,1-.31,2.08-.45,3.23-.42v3.89h-.28c-1.31,0-2.55,.23-3.72,.7-1.17,.47-2.19,1.17-3.07,2.11-.87,.94-1.56,2.1-2.06,3.49-.5,1.39-.75,2.99-.75,4.8v9.65Z"/>
      <path class="cls-1" d="M191.11,9.27h3.89l-10.54,24.4h-3.18l-10.49-24.4h3.98l8.15,20.09,8.2-20.09Z"/>
      <path class="cls-1" d="M200.76,3.98V0h4.12V3.98h-4.12Zm.23,29.5V9.27h3.61v24.21h-3.61Z"/>
      <path class="cls-1" d="M229.63,32.71c-1.55,.89-3.46,1.33-5.74,1.33-1.78,0-3.43-.33-4.94-1.01-1.51-.67-2.83-1.58-3.93-2.72-1.11-1.14-1.97-2.47-2.6-4-.62-1.53-.94-3.15-.94-4.87s.31-3.35,.94-4.89c.62-1.54,1.49-2.89,2.6-4.05,1.11-1.15,2.42-2.07,3.93-2.74,1.51-.67,3.16-1.01,4.94-1.01,1.15,0,2.2,.11,3.14,.33s1.79,.52,2.58,.91c.78,.39,1.5,.85,2.15,1.38,.66,.53,1.26,1.09,1.83,1.69l-2.39,2.53c-.97-1-2.02-1.86-3.16-2.58-1.14-.72-2.54-1.08-4.19-1.08-1.22,0-2.36,.24-3.42,.72-1.06,.48-1.98,1.15-2.76,2.01-.78,.86-1.39,1.85-1.83,2.99-.44,1.14-.66,2.36-.66,3.67s.23,2.54,.68,3.69c.45,1.15,1.08,2.16,1.87,3.01,.8,.86,1.73,1.53,2.81,2.01,1.08,.48,2.26,.72,3.54,.72,1.56,0,2.94-.34,4.14-1.03,1.2-.69,2.29-1.55,3.25-2.58l2.29,2.15c-1.22,1.38-2.6,2.51-4.14,3.4Z"/>
      <path class="cls-1" d="M242.16,26.2c.5,1.01,1.14,1.87,1.92,2.58,.78,.7,1.65,1.23,2.62,1.59,.97,.36,1.98,.54,3.04,.54,1.69,0,3.13-.31,4.33-.94,1.2-.62,2.3-1.45,3.3-2.48l2.25,2.01c-1.22,1.37-2.61,2.47-4.17,3.3-1.56,.83-3.5,1.24-5.81,1.24-1.66,0-3.22-.3-4.68-.91-1.47-.61-2.75-1.47-3.85-2.58-1.1-1.11-1.97-2.44-2.62-4-.65-1.56-.97-3.28-.97-5.15,0-1.75,.29-3.4,.87-4.94,.58-1.55,1.38-2.89,2.41-4.03,1.03-1.14,2.25-2.04,3.68-2.69,1.42-.66,2.97-.98,4.66-.98,1.78,0,3.37,.34,4.78,1.01,1.41,.67,2.59,1.58,3.56,2.74,.97,1.16,1.7,2.51,2.2,4.07,.5,1.56,.75,3.23,.75,5.01v.51c0,.19-.02,.39-.05,.61h-19.15c.12,1.31,.44,2.48,.94,3.49Zm14.56-6.16c-.09-1.09-.32-2.14-.68-3.14-.36-1-.85-1.87-1.49-2.62-.64-.75-1.41-1.35-2.33-1.8-.92-.45-1.98-.68-3.19-.68-1.06,0-2.03,.21-2.93,.63-.9,.42-1.69,1-2.37,1.73-.68,.73-1.24,1.6-1.68,2.6-.43,1-.71,2.09-.84,3.28h15.5Z"/>
      <path class="cls-1" d="M282.69,29.76c-.45,.89-1.06,1.65-1.83,2.27-.77,.62-1.67,1.1-2.72,1.43-1.05,.33-2.18,.49-3.4,.49-1.75,0-3.51-.32-5.29-.96-1.78-.64-3.36-1.51-4.73-2.6l1.83-2.58c1.31,1,2.68,1.76,4.1,2.29,1.42,.53,2.85,.8,4.28,.8s2.67-.34,3.61-1.03,1.41-1.62,1.41-2.81v-.09c0-.59-.16-1.11-.49-1.54-.33-.44-.77-.82-1.33-1.15s-1.21-.62-1.94-.87c-.73-.25-1.49-.48-2.27-.7-.94-.28-1.88-.58-2.83-.91-.95-.33-1.81-.74-2.58-1.24-.77-.5-1.39-1.12-1.87-1.87-.48-.75-.73-1.69-.73-2.81v-.09c0-1.03,.2-1.97,.61-2.83,.41-.86,.98-1.59,1.71-2.2,.73-.61,1.61-1.08,2.62-1.41,1.01-.33,2.11-.49,3.3-.49,1.5,0,3.01,.24,4.54,.73,1.53,.48,2.92,1.13,4.17,1.94l-1.64,2.72c-1.12-.72-2.3-1.29-3.54-1.71-1.23-.42-2.44-.63-3.63-.63-1.44,0-2.58,.34-3.42,1.01-.84,.67-1.26,1.51-1.26,2.51v.09c0,.56,.17,1.05,.52,1.48,.34,.42,.8,.79,1.38,1.1,.58,.31,1.24,.59,1.99,.84,.75,.25,1.53,.5,2.34,.75,.94,.28,1.87,.59,2.79,.94,.92,.34,1.76,.78,2.51,1.31,.75,.53,1.35,1.17,1.8,1.92,.45,.75,.68,1.67,.68,2.76v.09c0,1.16-.23,2.18-.68,3.07Z"/>
    </g>
  </g>
</svg>